<?xml version="1.0" encoding="UTF-8" standalone="no"?>
<!-- Created with Inkscape (http://www.inkscape.org/) -->

<svg
   xmlns:dc="http://purl.org/dc/elements/1.1/"
   xmlns:cc="http://creativecommons.org/ns#"
   xmlns:rdf="http://www.w3.org/1999/02/22-rdf-syntax-ns#"
   xmlns:svg="http://www.w3.org/2000/svg"
   xmlns="http://www.w3.org/2000/svg"
   xmlns:sodipodi="http://sodipodi.sourceforge.net/DTD/sodipodi-0.dtd"
   xmlns:inkscape="http://www.inkscape.org/namespaces/inkscape"
   width="500"
   height="500.01184"
   viewBox="0 0 132.29167 132.2948"
   version="1.1"
   id="svg8"
   inkscape:version="0.92.5 (2060ec1f9f, 2020-04-08)"
   sodipodi:docname="logo-fx300.svg"
   inkscape:export-filename="/home/Aidan/Pictures/wipeout-backgrounds/feisar.png"
   inkscape:export-xdpi="25.4"
   inkscape:export-ydpi="25.4">
  <defs
     id="defs2" />
  <sodipodi:namedview
     id="base"
     pagecolor="#ffffff"
     bordercolor="#666666"
     borderopacity="1.0"
     inkscape:pageopacity="0.0"
     inkscape:pageshadow="2"
     inkscape:zoom="0.49497476"
     inkscape:cx="338.37327"
     inkscape:cy="298.878"
     inkscape:document-units="mm"
     inkscape:current-layer="layer1"
     showgrid="false"
     inkscape:window-width="1920"
     inkscape:window-height="993"
     inkscape:window-x="1920"
     inkscape:window-y="0"
     inkscape:window-maximized="1"
     units="px"
     inkscape:snap-page="true"
     inkscape:snap-smooth-nodes="true"
     showguides="false"
     inkscape:object-nodes="false"
     inkscape:snap-bbox="true"
     inkscape:bbox-nodes="true"
     inkscape:snap-bbox-edge-midpoints="true"
     fit-margin-top="0"
     fit-margin-left="0"
     fit-margin-right="0"
     fit-margin-bottom="0" />
  <metadata
     id="metadata5">
    <rdf:RDF>
      <cc:Work
         rdf:about="">
        <dc:format>image/svg+xml</dc:format>
        <dc:type
           rdf:resource="http://purl.org/dc/dcmitype/StillImage" />
        <dc:title></dc:title>
      </cc:Work>
    </rdf:RDF>
  </metadata>
  <g
     inkscape:label="Layer 1"
     inkscape:groupmode="layer"
     id="layer1"
     transform="translate(-718.69384,394.01118)">
    <g
       id="g1115"
       transform="matrix(0.45305572,0,0,0.45305572,584.08044,-240.04743)"
       style="stroke-width:2.20723391">
      <path
         d="m 589.12195,-193.83503 c 0,80.63546 -65.37113,146.006599 -146.00417,146.006599 -80.63287,0 -145.9945,-65.371139 -145.9945,-146.006599 0,-80.63304 65.36163,-145.99899 145.9945,-145.99899 80.63304,0 146.00417,65.36595 146.00417,145.99899"
         style="fill:#ffffff;fill-opacity:1;fill-rule:nonzero;stroke:none;stroke-width:0.07786632"
         id="path1053"
         inkscape:connector-curvature="0" />
      <path
         d="m 526.31714,-133.65598 h -93.21665 c -7.25689,0 -18.97866,5.88128 -26.1837,13.13748 l -39.21836,39.474993 c 21.4622,14.353757 47.22406,22.777262 74.9778,22.777262 53.10604,0 99.03191,-30.64575 121.13508,-75.196005 h -37.54602 c 0.0311,-0.0708 0.0311,-0.12823 0.0518,-0.19373"
         style="fill:#f9cb0c;fill-opacity:1;fill-rule:nonzero;stroke:none;stroke-width:0.07786632"
         id="path1057"
         inkscape:connector-curvature="0" />
      <path
         d="m 353.60113,-161.35978 126.37019,-129.06785 c 5.96216,-6.00536 15.66232,-10.87013 21.67114,-10.87013 h 22.48337 c -22.65273,-17.13126 -50.85804,-27.30667 -81.4496,-27.30667 -74.6498,0 -135.16575,60.51501 -135.16575,135.16636 0,14.06619 2.15007,27.62966 6.13766,40.38228 h 19.5066 c 5.54843,0 13.69239,-3.44284 20.44639,-8.30399"
         style="fill:#377fa5;fill-opacity:1;fill-rule:nonzero;stroke:none;stroke-width:0.07786632"
         id="path1059"
         inkscape:connector-curvature="0" />
      <path
         d="m 571.28388,-235.06427 h -2.98281 c 0.0328,-0.0726 0.0363,-0.1227 0.057,-0.19529 h -93.21699 c -7.25672,0 -18.98315,5.88093 -26.18872,13.13748 l -48.18336,50.365 -44.80257,44.67364 c -5.96285,6.00536 -15.6675,10.86979 -21.67217,10.86979 h -2.52484 c 4.6344,6.64668 9.85794,12.84576 15.57504,18.543336 l 80.07934,-80.649806 c 5.96354,-6 15.66284,-10.87047 21.66751,-10.87047 h 128.64895 c 0.0397,-1.41087 0.10196,-2.82658 0.10196,-4.24748 0,-14.52951 -2.31919,-28.50946 -6.55837,-41.6262"
         style="fill:#a9d0d6;fill-opacity:1;fill-rule:nonzero;stroke:none;stroke-width:0.07786632"
         id="path1061"
         inkscape:connector-curvature="0" />
    </g>
  </g>
</svg>
