<?xml version="1.0" encoding="UTF-8" standalone="no"?>
<!-- Created with Inkscape (http://www.inkscape.org/) -->

<svg
   xmlns:dc="http://purl.org/dc/elements/1.1/"
   xmlns:cc="http://creativecommons.org/ns#"
   xmlns:rdf="http://www.w3.org/1999/02/22-rdf-syntax-ns#"
   xmlns:svg="http://www.w3.org/2000/svg"
   xmlns="http://www.w3.org/2000/svg"
   xmlns:sodipodi="http://sodipodi.sourceforge.net/DTD/sodipodi-0.dtd"
   xmlns:inkscape="http://www.inkscape.org/namespaces/inkscape"
   width="132.29167mm"
   height="23.032963mm"
   viewBox="0 0 132.29167 23.032963"
   version="1.1"
   id="svg8"
   inkscape:export-filename="/home/Aidan/Pictures/wipeout-backgrounds/triakis.png"
   inkscape:export-xdpi="25.4"
   inkscape:export-ydpi="25.4"
   inkscape:version="0.92.5 (2060ec1f9f, 2020-04-08)"
   sodipodi:docname="logo-fx300-fx400-text.svg">
  <defs
     id="defs2" />
  <sodipodi:namedview
     id="base"
     pagecolor="#ffffff"
     bordercolor="#666666"
     borderopacity="1.0"
     inkscape:pageopacity="0.0"
     inkscape:pageshadow="2"
     inkscape:zoom="1.4"
     inkscape:cx="293.49466"
     inkscape:cy="43.791451"
     inkscape:document-units="mm"
     inkscape:current-layer="layer1"
     showgrid="false"
     inkscape:snap-page="true"
     inkscape:snap-bbox="true"
     inkscape:snap-bbox-midpoints="true"
     inkscape:snap-object-midpoints="true"
     inkscape:snap-nodes="false"
     inkscape:bbox-paths="true"
     inkscape:bbox-nodes="true"
     inkscape:snap-bbox-edge-midpoints="true"
     inkscape:window-width="1920"
     inkscape:window-height="993"
     inkscape:window-x="1920"
     inkscape:window-y="0"
     inkscape:window-maximized="1"
     fit-margin-top="0"
     fit-margin-left="0"
     fit-margin-right="0"
     fit-margin-bottom="0" />
  <metadata
     id="metadata5">
    <rdf:RDF>
      <cc:Work
         rdf:about="">
        <dc:format>image/svg+xml</dc:format>
        <dc:type
           rdf:resource="http://purl.org/dc/dcmitype/StillImage" />
        <dc:title></dc:title>
      </cc:Work>
    </rdf:RDF>
  </metadata>
  <g
     inkscape:label="Layer 1"
     inkscape:groupmode="layer"
     id="layer1"
     transform="translate(-575.28987,190.7017)">
    <g
       id="g1628"
       transform="matrix(0.08061404,0,0,-0.08061404,546.45519,-176.86601)"
       style="stroke-width:0.43761334">
      <path
         inkscape:connector-curvature="0"
         id="path1612"
         style="fill:#354931;fill-opacity:1;fill-rule:nonzero;stroke:none;stroke-width:0.43761334"
         d="m 378.72331,170.46083 -21.0352,-21.403 v -41.207 l 21.0352,-21.371004 h 75.6211 V -114.09017 h 82.6207 V 86.479826 h 98.676 v 83.981004 h -256.9178" />
      <path
         inkscape:connector-curvature="0"
         id="path1614"
         style="fill:#354931;fill-opacity:1;fill-rule:nonzero;stroke:none;stroke-width:0.43761334"
         d="m 858.08311,171.62883 h -210.625 v -284.50025 h 83.941 V 87.690826 c 19.102,0 102.766,0 117.363,0 0,-14.761 0,-50.41 0,-50.41 l 21.387,-21.402 h 41.215 l 21.402,21.402 v 59.719 c 0,41.148004 -33.492,74.629004 -74.683,74.629004" />
      <path
         inkscape:connector-curvature="0"
         id="path1616"
         style="fill:#354931;fill-opacity:1;fill-rule:nonzero;stroke:none;stroke-width:0.43761334"
         d="m 1003.2151,171.62883 h -41.25399 l -21.335,-21.34 v -263.16025 h 83.92499 v 263.16025 l -21.336,21.34" />
      <path
         inkscape:connector-curvature="0"
         id="path1618"
         style="fill:#354931;fill-opacity:1;fill-rule:nonzero;stroke:none;stroke-width:0.43761334"
         d="m 1684.8881,171.62883 h -41.2 l -21.39,-21.34 v -263.16025 h 83.94 v 263.16025 l -21.35,21.34" />
      <path
         inkscape:connector-curvature="0"
         id="path1620"
         style="fill:#354931;fill-opacity:1;fill-rule:nonzero;stroke:none;stroke-width:0.43761334"
         d="m 1613.7281,149.81983 -21.37,21.328 h -41.19 l -21.41,-21.328 c -17.69,-17.719 -80.76,-80.820004 -98.46,-98.539004 -4.84,0 -11.3,0 -18.5,0 V 171.62883 h -83.965 v -284.50025 h 83.965 v 80.222646 h 53.29 l 147.64,147.648604 v 34.82" />
      <path
         inkscape:connector-curvature="0"
         id="path1622"
         style="fill:#354931;fill-opacity:1;fill-rule:nonzero;stroke:none;stroke-width:0.43761334"
         d="m 1536.2381,23.889826 -59.33,-59.3784 c 0,0 36.76,-36.7813 52.97,-52.9922 0,-11.937496 0,-24.589866 0,-24.589866 h 83.98 v 59.359366 l -77.62,77.6011" />
      <path
         inkscape:connector-curvature="0"
         id="path1624"
         style="fill:#354931;fill-opacity:1;fill-rule:nonzero;stroke:none;stroke-width:0.43761334"
         d="m 1924.1081,71.389826 c 0,0 -109.31,0 -125.47,0 0,6.34 0,9.918 0,16.301 17.02,0 175.63,0 175.63,0 l 21.39,21.348004 v 41.25 l -21.39,21.34 h -184.96 c -41.12,0 -74.64,-33.481 -74.64,-74.629004 v -34.969 c 0,-41.16 33.52,-74.633 74.64,-74.633 0,0 109.28,0 125.47,0 0,-6.3864 0,-9.9567 0,-16.3083 -17.05,0 -200.94,0 -200.94,0 v -83.960946 h 210.27 c 41.12,0 74.63,33.453146 74.63,74.613246 v 35.0000001 c 0,41.1479999 -33.51,74.6479999 -74.63,74.6479999" />
      <path
         inkscape:connector-curvature="0"
         id="path1626"
         style="fill:#354931;fill-opacity:1;fill-rule:nonzero;stroke:none;stroke-width:0.43761334"
         d="m 1246.0861,171.42983 h -210.488 V 87.468826 c 0,0 184.121,0 201.172,0 0,-12.219 0,-72.731 0,-116.3793 -43.984,0 -105.664,0 -117.953,0 0,6.3516 0,9.9219 0,16.3083 15.695,0 84.496,0 84.496,0 l 21.379,21.3520001 V 49.999826 l -21.379,21.39 h -93.816 c -41.168,0 -74.645,-33.5 -74.645,-74.6479999 V -38.258174 c 0,-41.1601 33.477,-74.613246 74.645,-74.613246 h 211.25 V 96.807826 c 0,41.141004 -33.516,74.622004 -74.661,74.622004" />
    </g>
  </g>
</svg>
