<?xml version="1.0" encoding="UTF-8" standalone="no"?>
<!-- Created with Inkscape (http://www.inkscape.org/) -->

<svg
   xmlns:dc="http://purl.org/dc/elements/1.1/"
   xmlns:cc="http://creativecommons.org/ns#"
   xmlns:rdf="http://www.w3.org/1999/02/22-rdf-syntax-ns#"
   xmlns:svg="http://www.w3.org/2000/svg"
   xmlns="http://www.w3.org/2000/svg"
   xmlns:sodipodi="http://sodipodi.sourceforge.net/DTD/sodipodi-0.dtd"
   xmlns:inkscape="http://www.inkscape.org/namespaces/inkscape"
   width="500"
   height="35.76926"
   viewBox="0 0 132.29166 9.4639505"
   version="1.1"
   id="svg1431"
   inkscape:version="0.92.5 (2060ec1f9f, 2020-04-08)"
   sodipodi:docname="logo-fx300-fx400-text.svg"
   inkscape:export-filename="/home/Aidan/Pictures/wipeout-backgrounds/piranha.png"
   inkscape:export-xdpi="96"
   inkscape:export-ydpi="96">
  <defs
     id="defs1425" />
  <sodipodi:namedview
     id="base"
     pagecolor="#ffffff"
     bordercolor="#666666"
     borderopacity="1.0"
     inkscape:pageopacity="0.0"
     inkscape:pageshadow="2"
     inkscape:zoom="0.35"
     inkscape:cx="-417.6826"
     inkscape:cy="7.2442047"
     inkscape:document-units="mm"
     inkscape:current-layer="layer1"
     showgrid="false"
     units="px"
     inkscape:window-width="1920"
     inkscape:window-height="993"
     inkscape:window-x="1920"
     inkscape:window-y="0"
     inkscape:window-maximized="1"
     inkscape:snap-page="true"
     inkscape:snap-bbox="true"
     inkscape:snap-bbox-midpoints="true"
     fit-margin-top="0"
     fit-margin-left="0"
     fit-margin-right="0"
     fit-margin-bottom="0" />
  <metadata
     id="metadata1428">
    <rdf:RDF>
      <cc:Work
         rdf:about="">
        <dc:format>image/svg+xml</dc:format>
        <dc:type
           rdf:resource="http://purl.org/dc/dcmitype/StillImage" />
        <dc:title></dc:title>
      </cc:Work>
    </rdf:RDF>
  </metadata>
  <g
     inkscape:label="Layer 1"
     inkscape:groupmode="layer"
     id="layer1"
     transform="translate(-110.36904,-161.58742)">
    <path
       d="M 124.57552,165.35744 V 163.493 H 112.26 v 1.86444 z m 1.88886,0.009 -1.89399,1.88074 H 112.26 v 3.80393 h -1.89096 v -7.55828 l 1.89443,-1.88736 h 12.30785 l 1.89306,1.87999 v 1.88098"
       style="fill:#cd1e25;fill-opacity:1;fill-rule:nonzero;stroke:none;stroke-width:0.03527778"
       id="path1012"
       inkscape:connector-curvature="0" />
    <path
       d="m 130.3503,171.05128 h -1.89009 v -9.44563 h 1.89009 v 9.44563"
       style="fill:#cd1e25;fill-opacity:1;fill-rule:nonzero;stroke:none;stroke-width:0.03527778"
       id="path1014"
       inkscape:connector-curvature="0" />
    <path
       d="M 146.55143,165.35894 V 163.493 h -12.31721 v 1.86444 z m 1.8929,5.68933 -1.89094,0.003 -1.89657,-3.80348 -10.4226,-3.5e-4 v 3.80393 h -1.88808 v -7.55828 l 1.89595,-1.88735 h 12.30934 l 1.89005,1.88025 v 1.88165 l -1.89249,1.88297 1.89534,3.79774"
       style="fill:#cd1e25;fill-opacity:1;fill-rule:nonzero;stroke:none;stroke-width:0.03527778"
       id="path1016"
       inkscape:connector-curvature="0" />
    <path
       d="m 202.71778,171.04827 -1.88998,0.003 v -3.80348 h -12.31743 v 3.80348 l -1.88612,-0.003 v -9.44262 h 1.88612 v 3.75329 h 12.31743 v -3.75329 h 1.88998 v 9.44262"
       style="fill:#cd1e25;fill-opacity:1;fill-rule:nonzero;stroke:none;stroke-width:0.03527778"
       id="path1018"
       inkscape:connector-curvature="0" />
    <path
       d="m 164.64476,165.34281 v -1.86532 h -12.31705 v 1.86532 z m 1.88997,5.68873 -1.88997,0.002 v -3.80318 h -12.31705 v 3.80318 l -1.88882,0.0173 v -7.57379 l 1.89345,-1.88963 h 12.30856 l 1.89383,1.88963 v 7.55404"
       style="fill:#cd1e25;fill-opacity:1;fill-rule:nonzero;stroke:none;stroke-width:0.03527778"
       id="path1020"
       inkscape:connector-curvature="0" />
    <path
       d="m 184.62664,171.04827 -1.89036,0.003 v -7.55828 h -12.31627 v 7.55828 l -1.88921,-0.003 V 163.493 l 1.89229,-1.88735 h 12.31011 l 1.89344,1.88735 v 7.55527"
       style="fill:#cd1e25;fill-opacity:1;fill-rule:nonzero;stroke:none;stroke-width:0.03527778"
       id="path1022"
       inkscape:connector-curvature="0" />
    <path
       d="m 218.92087,165.34281 v -1.86532 h -12.31628 v 1.86532 z m 1.88804,5.68873 -1.88804,0.002 v -3.80318 h -12.31628 v 3.80318 l -1.89113,0.0173 v -7.57379 l 1.89614,-1.88963 h 12.30779 l 1.89152,1.88963 v 7.55404"
       style="fill:#cd1e25;fill-opacity:1;fill-rule:nonzero;stroke:none;stroke-width:0.03527778"
       id="path1024"
       inkscape:connector-curvature="0" />
    <path
       d="m 224.69495,171.05128 h -1.88997 v -1.64774 h 1.88997 v 1.64774"
       style="fill:#cd1e25;fill-opacity:1;fill-rule:nonzero;stroke:none;stroke-width:0.03527778"
       id="path1026"
       inkscape:connector-curvature="0" />
    <path
       d="m 240.77112,165.34629 v -1.86459 h -12.3159 v 1.86459 z m 1.88959,5.68615 -1.88959,0.006 v -3.80423 h -12.3159 v 3.80423 l -1.8892,0.0124 v -7.56959 l 1.89229,-1.89036 h 12.30895 l 1.89345,1.89036 v 7.55074"
       style="fill:#fbc907;fill-opacity:1;fill-rule:nonzero;stroke:none;stroke-width:0.03527778"
       id="path1028"
       inkscape:connector-curvature="0" />
  </g>
</svg>
