<?xml version="1.0" encoding="UTF-8" standalone="no"?>
<!-- Created with Inkscape (http://www.inkscape.org/) -->

<svg
   xmlns:dc="http://purl.org/dc/elements/1.1/"
   xmlns:cc="http://creativecommons.org/ns#"
   xmlns:rdf="http://www.w3.org/1999/02/22-rdf-syntax-ns#"
   xmlns:svg="http://www.w3.org/2000/svg"
   xmlns="http://www.w3.org/2000/svg"
   xmlns:sodipodi="http://sodipodi.sourceforge.net/DTD/sodipodi-0.dtd"
   xmlns:inkscape="http://www.inkscape.org/namespaces/inkscape"
   width="1920"
   height="1080"
   viewBox="0 0 507.99999 285.75001"
   version="1.1"
   id="svg957"
   inkscape:version="0.92.5 (2060ec1f9f, 2020-04-08)"
   sodipodi:docname="goteki45-wallpaper-16by9-1.svg"
   inkscape:export-filename="/home/Aidan/Pictures/wipeout-backgrounds/goteki45.png"
   inkscape:export-xdpi="25.407003"
   inkscape:export-ydpi="25.407003">
  <defs
     id="defs951" />
  <sodipodi:namedview
     id="base"
     pagecolor="#ffffff"
     bordercolor="#666666"
     borderopacity="1.0"
     inkscape:pageopacity="0.0"
     inkscape:pageshadow="2"
     inkscape:zoom="0.35355339"
     inkscape:cx="1305.0911"
     inkscape:cy="364.25877"
     inkscape:document-units="mm"
     inkscape:current-layer="layer1"
     showgrid="false"
     units="px"
     inkscape:window-width="1920"
     inkscape:window-height="993"
     inkscape:window-x="1920"
     inkscape:window-y="0"
     inkscape:window-maximized="1"
     inkscape:snap-page="true"
     showguides="false"
     inkscape:snap-bbox="true"
     inkscape:snap-bbox-midpoints="false"
     inkscape:snap-nodes="false"
     inkscape:bbox-nodes="true" />
  <metadata
     id="metadata954">
    <rdf:RDF>
      <cc:Work
         rdf:about="">
        <dc:format>image/svg+xml</dc:format>
        <dc:type
           rdf:resource="http://purl.org/dc/dcmitype/StillImage" />
        <dc:title></dc:title>
      </cc:Work>
    </rdf:RDF>
  </metadata>
  <g
     inkscape:label="Layer 1"
     inkscape:groupmode="layer"
     id="layer1"
     transform="translate(0,-11.249969)">
    <g
       id="g1169"
       transform="matrix(1.0094492,0,0,1.0094492,0,-2.806456)"
       style="stroke-width:0.99063921">
      <rect
         style="opacity:1;fill:#f9bb0c;fill-opacity:1;stroke:none;stroke-width:3.41603565;stroke-linecap:butt;stroke-linejoin:round;stroke-miterlimit:4;stroke-dasharray:none;stroke-opacity:1;paint-order:markers stroke fill"
         id="rect1377"
         width="503.24469"
         height="283.07513"
         x="0"
         y="13.924872" />
      <rect
         y="13.924857"
         x="0"
         height="283.07513"
         width="503.24469"
         id="rect1639"
         style="opacity:1;fill:#f9bb0c;fill-opacity:1;stroke:none;stroke-width:3.41603565;stroke-linecap:butt;stroke-linejoin:round;stroke-miterlimit:4;stroke-dasharray:none;stroke-opacity:1;paint-order:markers stroke fill" />
      <path
         inkscape:connector-curvature="0"
         id="path857"
         d="m 0,13.924871 v 8.417375 L 0.80889152,21.533354 13.50261,34.227074 22.349218,25.380465 10.893623,13.924871 Z"
         style="opacity:0.1;fill:#ed1f7f;fill-opacity:1;fill-rule:nonzero;stroke:none;stroke-width:0.03494754" />
      <path
         inkscape:connector-curvature="0"
         id="path859"
         d="m 15.774739,13.924871 -0.129351,0.129352 8.844576,8.844576 8.973928,-8.973928 z"
         style="opacity:0.1;fill:#ed1f7f;fill-opacity:1;fill-rule:nonzero;stroke:none;stroke-width:0.03494754" />
      <path
         inkscape:connector-curvature="0"
         id="path935"
         d="M 0,86.110995 V 118.64707 L 16.268039,102.37903 Z"
         style="opacity:0.1;fill:#ed1f7f;fill-opacity:1;fill-rule:nonzero;stroke:none;stroke-width:0.03494754" />
      <path
         inkscape:connector-curvature="0"
         id="path939"
         d="M 24.310767,27.342014 15.464023,36.188622 27.423753,48.148216 5.5370875,70.034882 0,64.497795 v 17.690236 l 5.5369521,5.536953 30.7317839,-30.731786 12.69372,12.693719 8.846606,-8.846607 z"
         style="opacity:0.1;fill:#ed1f7f;fill-opacity:1;fill-rule:nonzero;stroke:none;stroke-width:0.03494754" />
      <path
         inkscape:connector-curvature="0"
         id="path941"
         d="M 37.389428,13.924871 26.452731,24.861567 47.257715,45.66655 77.988011,14.936391 l 3.847513,3.847383 -30.730293,30.730293 8.844713,8.844576 39.576358,-39.57636 -4.857413,-4.857412 H 61.306314 L 47.252703,27.978481 44.139311,24.864954 55.079393,13.924871 Z"
         style="opacity:0.1;fill:#ed1f7f;fill-opacity:1;fill-rule:nonzero;stroke:none;stroke-width:0.03494754" />
      <path
         inkscape:connector-curvature="0"
         id="path961"
         d="M 18.229451,104.34058 0,122.57004 v 17.68995 L 27.074435,113.18556 Z M 30.187963,116.29895 0,146.48692 v 17.69321 l 30.18837,-30.18836 3.847517,3.84737 -30.7301591,30.7303 8.8445761,8.84457 39.57636,-39.57635 z"
         style="opacity:0.1;fill:#ed1f7f;fill-opacity:1;fill-rule:nonzero;stroke:none;stroke-width:0.03494754" />
      <g
         id="g969"
         transform="matrix(0.44807192,0,0,0.44807192,-304.09107,128.01846)"
         style="opacity:0.10100002;stroke-width:2.21089339">
        <path
           inkscape:connector-curvature="0"
           id="path965"
           style="fill:#ed1f7f;fill-opacity:1;fill-rule:nonzero;stroke:none;stroke-width:0.0779954"
           d="m 792.31431,-125.80834 26.69135,26.69135 -48.8463,48.8463 -26.69135,-26.691352 -19.74038,19.74037 46.43149,46.43149 68.58667,-68.586671 28.32965,28.329647 19.74384,-19.743836 -74.76114,-74.761138 -19.74383,19.74384" />
        <path
           inkscape:connector-curvature="0"
           id="path967"
           style="fill:#ed1f7f;fill-opacity:1;fill-rule:nonzero;stroke:none;stroke-width:0.0779954"
           d="m 924.90464,-219.67377 -19.74013,-19.74013 -88.32591,88.32592 46.43241,46.43241 68.58328,-68.58329 8.58676,8.58677 -68.58328,68.583282 19.7393,19.739296 88.32591,-88.325918 -48.06975,-48.06975 -68.59353,68.59354 -6.94859,-6.94859 68.59353,-68.59354" />
      </g>
      <path
         inkscape:connector-curvature="0"
         id="path971"
         d="m 108.30668,13.924871 -4.85741,4.857412 20.80458,20.804713 25.66212,-25.662125 H 132.226 l -7.97202,7.972024 -7.97189,-7.972024 z m 51.7486,0 7.62407,7.62406 7.62419,-7.62406 z"
         style="opacity:0.1;fill:#ed1f7f;fill-opacity:1;fill-rule:nonzero;stroke:none;stroke-width:0.03494754" />
      <path
         inkscape:connector-curvature="0"
         id="path985"
         d="M 11.970972,181.85723 3.1243639,190.70384 15.083958,202.66343 0,217.74739 v 17.6901 l 23.92894,-23.92894 12.69372,12.69372 8.846744,-8.84674 z"
         style="opacity:0.1;fill:#ed1f7f;fill-opacity:1;fill-rule:nonzero;stroke:none;stroke-width:0.03494754" />
      <path
         d="m 62.534361,148.64538 -8.845,-8.845 -39.576359,39.57637 20.80506,20.80505 30.730241,-30.73025 3.847486,3.8475 -30.730243,30.73024 8.844627,8.84463 39.57636,-39.57637 -21.538705,-21.53871 -30.734835,30.73485 -3.113468,-3.11348 30.734836,-30.73483"
         style="opacity:0.1;fill:#ed1f7f;fill-opacity:1;fill-rule:nonzero;stroke:none;stroke-width:0.03494754"
         id="path987"
         inkscape:connector-curvature="0" />
      <g
         style="opacity:0.10100002;stroke-width:2.21089339"
         transform="matrix(0.44807192,0,0,0.44807192,-268.6312,163.47831)"
         id="g995">
        <path
           d="m 792.31431,-125.80834 26.69135,26.69135 -48.8463,48.8463 -26.69135,-26.691352 -19.74038,19.74037 46.43149,46.43149 68.58667,-68.586671 28.32965,28.329647 19.74384,-19.743836 -74.76114,-74.761138 -19.74383,19.74384"
           style="fill:#ed1f7f;fill-opacity:1;fill-rule:nonzero;stroke:none;stroke-width:0.0779954"
           id="path991"
           inkscape:connector-curvature="0" />
        <path
           d="m 924.90464,-219.67377 -19.74013,-19.74013 -88.32591,88.32592 46.43241,46.43241 68.58328,-68.58329 8.58676,8.58677 -68.58328,68.583282 19.7393,19.739296 88.32591,-88.325918 -48.06975,-48.06975 -68.59353,68.59354 -6.94859,-6.94859 68.59353,-68.59354"
           style="fill:#ed1f7f;fill-opacity:1;fill-rule:nonzero;stroke:none;stroke-width:0.0779954"
           id="path993"
           inkscape:connector-curvature="0" />
      </g>
      <path
         inkscape:connector-curvature="0"
         id="path997"
         style="opacity:0.1;fill:#ed1f7f;fill-opacity:1;fill-rule:nonzero;stroke:none;stroke-width:0.03494754"
         d="m 169.64088,23.510405 11.95964,11.959644 -21.88665,21.886653 -11.95965,-11.959644 -8.84511,8.845105 20.80465,20.804648 30.73176,-30.731763 12.69372,12.693721 8.84665,-8.846659 -33.49836,-33.498367 -8.84665,8.846662" />
      <path
         inkscape:connector-curvature="0"
         id="path999"
         d="m 182.37105,13.924871 19.06353,19.063537 19.06354,-19.063537 H 202.8049 l -1.37533,1.375332 -1.37533,-1.375332 z m 45.82197,0 -22.91092,22.910918 8.84458,8.844712 31.75563,-31.75563 z"
         style="opacity:0.1;fill:#ed1f7f;fill-opacity:1;fill-rule:nonzero;stroke:none;stroke-width:0.03494754" />
      <g
         style="opacity:0.10100002;stroke-width:2.21089339"
         transform="matrix(0.44807192,0,0,0.44807192,-316.43077,282.53369)"
         id="g1015">
        <path
           d="m 792.31431,-125.80834 26.69135,26.69135 -48.8463,48.8463 -26.69135,-26.691352 -19.74038,19.74037 46.43149,46.43149 68.58667,-68.586671 28.32965,28.329647 19.74384,-19.743836 -74.76114,-74.761138 -19.74383,19.74384"
           style="fill:#ed1f7f;fill-opacity:1;fill-rule:nonzero;stroke:none;stroke-width:0.0779954"
           id="path1011"
           inkscape:connector-curvature="0" />
        <path
           d="m 924.90464,-219.67377 -19.74013,-19.74013 -88.32591,88.32592 46.43241,46.43241 68.58328,-68.58329 8.58676,8.58677 -68.58328,68.583282 19.7393,19.739296 88.32591,-88.325918 -48.06975,-48.06975 -68.59353,68.59354 -6.94859,-6.94859 68.59353,-68.59354"
           style="fill:#ed1f7f;fill-opacity:1;fill-rule:nonzero;stroke:none;stroke-width:0.0779954"
           id="path1013"
           inkscape:connector-curvature="0" />
      </g>
      <g
         id="g1021"
         transform="matrix(0.44807192,0,0,0.44807192,-233.1725,198.93697)"
         style="opacity:0.10100002;stroke-width:2.21089339">
        <path
           inkscape:connector-curvature="0"
           id="path1017"
           style="fill:#ed1f7f;fill-opacity:1;fill-rule:nonzero;stroke:none;stroke-width:0.0779954"
           d="m 792.31431,-125.80834 26.69135,26.69135 -48.8463,48.8463 -26.69135,-26.691352 -19.74038,19.74037 46.43149,46.43149 68.58667,-68.586671 28.32965,28.329647 19.74384,-19.743836 -74.76114,-74.761138 -19.74383,19.74384" />
        <path
           inkscape:connector-curvature="0"
           id="path1019"
           style="fill:#ed1f7f;fill-opacity:1;fill-rule:nonzero;stroke:none;stroke-width:0.0779954"
           d="m 924.90464,-219.67377 -19.74013,-19.74013 -88.32591,88.32592 46.43241,46.43241 68.58328,-68.58329 8.58676,8.58677 -68.58328,68.583282 19.7393,19.739296 88.32591,-88.325918 -48.06975,-48.06975 -68.59353,68.59354 -6.94859,-6.94859 68.59353,-68.59354" />
      </g>
      <path
         d="m 205.09956,58.969069 11.95965,11.959644 -21.88666,21.886654 -11.95964,-11.959644 -8.84511,8.845105 20.80465,20.804652 30.73176,-30.731767 12.69372,12.693721 8.84666,-8.846659 -33.49838,-33.498367 -8.84665,8.846661"
         style="opacity:0.1;fill:#ed1f7f;fill-opacity:1;fill-rule:nonzero;stroke:none;stroke-width:0.03494754"
         id="path1023"
         inkscape:connector-curvature="0" />
      <path
         inkscape:connector-curvature="0"
         id="path1025"
         d="m 249.80526,13.924871 -33.71703,33.717043 20.80498,20.805119 30.7303,-30.730294 3.84751,3.847517 -30.7303,30.730294 8.84472,8.844576 39.57636,-39.57636 -21.5387,-21.538701 -30.7349,30.734899 -3.11339,-3.113528 30.73476,-30.734899 -2.98567,-2.985666 z"
         style="opacity:0.1;fill:#ed1f7f;fill-opacity:1;fill-rule:nonzero;stroke:none;stroke-width:0.03494754" />
      <path
         inkscape:connector-curvature="0"
         id="path1029"
         d="m 265.44673,13.924871 12.98399,12.983847 12.98384,-12.983847 z"
         style="opacity:0.1;fill:#ed1f7f;fill-opacity:1;fill-rule:nonzero;stroke:none;stroke-width:0.03494754" />
      <path
         inkscape:connector-curvature="0"
         id="path1037"
         d="m 82.88958,252.7757 -8.846746,8.84674 11.959727,11.95959 -21.886664,21.88668 -11.95973,-11.95974 -8.844982,8.84512 4.645844,4.64585 h 32.3176 l 14.572918,-14.57292 12.693723,12.69372 8.8466,-8.8466 z"
         style="opacity:0.1;fill:#ed1f7f;fill-opacity:1;fill-rule:nonzero;stroke:none;stroke-width:0.03494754" />
      <path
         d="m 133.45288,219.56391 -8.84499,-8.84499 -39.576364,39.57637 20.805064,20.80505 30.73024,-30.73025 3.84749,3.8475 -30.73025,30.73024 8.84463,8.84462 39.57636,-39.57636 -21.53871,-21.53871 -30.73483,30.73485 -3.11347,-3.11348 30.73483,-30.73484"
         style="opacity:0.1;fill:#ed1f7f;fill-opacity:1;fill-rule:nonzero;stroke:none;stroke-width:0.03494754"
         id="path1039"
         inkscape:connector-curvature="0" />
      <g
         style="opacity:0.10100002;stroke-width:2.21089339"
         transform="matrix(0.44807192,0,0,0.44807192,-197.71264,234.39685)"
         id="g1047">
        <path
           d="m 792.31431,-125.80834 26.69135,26.69135 -48.8463,48.8463 -26.69135,-26.691352 -19.74038,19.74037 46.43149,46.43149 68.58667,-68.586671 28.32965,28.329647 19.74384,-19.743836 -74.76114,-74.761138 -19.74383,19.74384"
           style="fill:#ed1f7f;fill-opacity:1;fill-rule:nonzero;stroke:none;stroke-width:0.0779954"
           id="path1043"
           inkscape:connector-curvature="0" />
        <path
           d="m 924.90464,-219.67377 -19.74013,-19.74013 -88.32591,88.32592 46.43241,46.43241 68.58328,-68.58329 8.58676,8.58677 -68.58328,68.583282 19.7393,19.739296 88.32591,-88.325918 -48.06975,-48.06975 -68.59353,68.59354 -6.94859,-6.94859 68.59353,-68.59354"
           style="fill:#ed1f7f;fill-opacity:1;fill-rule:nonzero;stroke:none;stroke-width:0.0779954"
           id="path1045"
           inkscape:connector-curvature="0" />
      </g>
      <g
         style="opacity:0.10100002;stroke-width:2.21089339"
         transform="matrix(0.44807192,0,0,0.44807192,-114.45438,150.80013)"
         id="g1053">
        <path
           d="m 792.31431,-125.80834 26.69135,26.69135 -48.8463,48.8463 -26.69135,-26.691352 -19.74038,19.74037 46.43149,46.43149 68.58667,-68.586671 28.32965,28.329647 19.74384,-19.743836 -74.76114,-74.761138 -19.74383,19.74384"
           style="fill:#ed1f7f;fill-opacity:1;fill-rule:nonzero;stroke:none;stroke-width:0.0779954"
           id="path1049"
           inkscape:connector-curvature="0" />
        <path
           d="m 924.90464,-219.67377 -19.74013,-19.74013 -88.32591,88.32592 46.43241,46.43241 68.58328,-68.58329 8.58676,8.58677 -68.58328,68.583282 19.7393,19.739296 88.32591,-88.325918 -48.06975,-48.06975 -68.59353,68.59354 -6.94859,-6.94859 68.59353,-68.59354"
           style="fill:#ed1f7f;fill-opacity:1;fill-rule:nonzero;stroke:none;stroke-width:0.0779954"
           id="path1051"
           inkscape:connector-curvature="0" />
      </g>
      <path
         inkscape:connector-curvature="0"
         id="path1055"
         d="m 326.91043,13.924871 8.86692,8.86706 -21.88666,21.886531 -11.95959,-11.959595 -8.84513,8.845119 20.80458,20.804712 30.7318,-30.731784 12.69371,12.693719 8.84661,-8.846744 -21.55902,-21.559018 z"
         style="opacity:0.1;fill:#ed1f7f;fill-opacity:1;fill-rule:nonzero;stroke:none;stroke-width:0.03494754" />
      <path
         inkscape:connector-curvature="0"
         id="path1057"
         d="m 349.22619,13.924871 6.38527,6.385258 6.38525,-6.385258 z m 20.46543,0 -10.23279,10.232776 8.84472,8.844711 19.07748,-19.077487 z"
         style="opacity:0.1;fill:#ed1f7f;fill-opacity:1;fill-rule:nonzero;stroke:none;stroke-width:0.03494754" />
      <path
         inkscape:connector-curvature="0"
         id="path1063"
         d="m 118.34834,288.23447 -8.76534,8.76547 h 17.53081 z"
         style="opacity:0.1;fill:#ed1f7f;fill-opacity:1;fill-rule:nonzero;stroke:none;stroke-width:0.03494754" />
      <path
         inkscape:connector-curvature="0"
         id="path1065"
         d="m 160.06666,246.17765 -39.57636,39.57637 11.24592,11.24592 h 19.11839 l 21.17097,-21.17109 3.84752,3.84751 -17.32359,17.32358 h 17.68929 l 17.32507,-17.32507 -21.5387,-21.53871 -30.7349,30.73491 -3.11339,-3.11354 30.73476,-30.7349 z"
         style="opacity:0.1;fill:#ed1f7f;fill-opacity:1;fill-rule:nonzero;stroke:none;stroke-width:0.03494754" />
      <g
         style="opacity:0.10100002;stroke-width:2.21089339"
         transform="matrix(0.44807192,0,0,0.44807192,-162.25387,269.85562)"
         id="g1073">
        <path
           d="m 792.31431,-125.80834 26.69135,26.69135 -48.8463,48.8463 -26.69135,-26.691352 -19.74038,19.74037 46.43149,46.43149 68.58667,-68.586671 28.32965,28.329647 19.74384,-19.743836 -74.76114,-74.761138 -19.74383,19.74384"
           style="fill:#ed1f7f;fill-opacity:1;fill-rule:nonzero;stroke:none;stroke-width:0.0779954"
           id="path1069"
           inkscape:connector-curvature="0" />
        <path
           d="m 924.90464,-219.67377 -19.74013,-19.74013 -88.32591,88.32592 46.43241,46.43241 68.58328,-68.58329 8.58676,8.58677 -68.58328,68.583282 19.7393,19.739296 88.32591,-88.325918 -48.06975,-48.06975 -68.59353,68.59354 -6.94859,-6.94859 68.59353,-68.59354"
           style="fill:#ed1f7f;fill-opacity:1;fill-rule:nonzero;stroke:none;stroke-width:0.0779954"
           id="path1071"
           inkscape:connector-curvature="0" />
      </g>
      <g
         style="opacity:0.10100002;stroke-width:2.21089339"
         transform="matrix(0.44807192,0,0,0.44807192,-78.995593,186.2589)"
         id="g1079">
        <path
           d="m 792.31431,-125.80834 26.69135,26.69135 -48.8463,48.8463 -26.69135,-26.691352 -19.74038,19.74037 46.43149,46.43149 68.58667,-68.586671 28.32965,28.329647 19.74384,-19.743836 -74.76114,-74.761138 -19.74383,19.74384"
           style="fill:#ed1f7f;fill-opacity:1;fill-rule:nonzero;stroke:none;stroke-width:0.0779954"
           id="path1075"
           inkscape:connector-curvature="0" />
        <path
           d="m 924.90464,-219.67377 -19.74013,-19.74013 -88.32591,88.32592 46.43241,46.43241 68.58328,-68.58329 8.58676,8.58677 -68.58328,68.583282 19.7393,19.739296 88.32591,-88.325918 -48.06975,-48.06975 -68.59353,68.59354 -6.94859,-6.94859 68.59353,-68.59354"
           style="fill:#ed1f7f;fill-opacity:1;fill-rule:nonzero;stroke:none;stroke-width:0.0779954"
           id="path1077"
           inkscape:connector-curvature="0" />
      </g>
      <path
         d="m 359.27647,46.291007 11.95964,11.959644 -21.88667,21.886654 -11.95963,-11.959644 -8.8451,8.845104 20.80462,20.804649 30.73177,-30.731764 12.69372,12.693721 8.84668,-8.846658 -33.49839,-33.498367 -8.84664,8.846661"
         style="opacity:0.1;fill:#ed1f7f;fill-opacity:1;fill-rule:nonzero;stroke:none;stroke-width:0.03494754"
         id="path1081"
         inkscape:connector-curvature="0" />
      <path
         inkscape:connector-curvature="0"
         id="path1083"
         d="m 391.30413,13.924871 -21.03904,21.039036 20.80513,20.805119 30.73015,-30.730294 3.84752,3.847517 -30.7303,30.730159 8.84472,8.844711 39.57636,-39.57636 -14.95989,-14.959888 h -13.15762 l -24.15609,24.155951 -3.11339,-3.113393 21.04242,-21.042558 z"
         style="opacity:0.1;fill:#ed1f7f;fill-opacity:1;fill-rule:nonzero;stroke:none;stroke-width:0.03494754" />
      <path
         inkscape:connector-curvature="0"
         id="path1095"
         d="m 237.06645,240.09769 -8.84661,8.84661 11.95959,11.9596 -21.88667,21.88666 -11.95958,-11.95959 -8.84513,8.84511 17.32386,17.32386 h 6.96145 l 27.25106,-27.25106 12.69372,12.69385 8.84674,-8.84674 z"
         style="opacity:0.1;fill:#ed1f7f;fill-opacity:1;fill-rule:nonzero;stroke:none;stroke-width:0.03494754" />
      <path
         d="m 287.62979,206.88584 -8.845,-8.84501 -39.57636,39.57637 20.80506,20.80506 30.73025,-30.73025 3.84746,3.84749 -30.73024,30.73024 8.84463,8.84463 39.57637,-39.57636 -21.53872,-21.53871 -30.73482,30.73484 -3.11347,-3.11347 30.73484,-30.73483"
         style="opacity:0.1;fill:#ed1f7f;fill-opacity:1;fill-rule:nonzero;stroke:none;stroke-width:0.03494754"
         id="path1097"
         inkscape:connector-curvature="0" />
      <g
         id="g1105"
         transform="matrix(0.44807192,0,0,0.44807192,-43.535738,221.71875)"
         style="opacity:0.10100002;stroke-width:2.21089339">
        <path
           inkscape:connector-curvature="0"
           id="path1101"
           style="fill:#ed1f7f;fill-opacity:1;fill-rule:nonzero;stroke:none;stroke-width:0.0779954"
           d="m 792.31431,-125.80834 26.69135,26.69135 -48.8463,48.8463 -26.69135,-26.691352 -19.74038,19.74037 46.43149,46.43149 68.58667,-68.586671 28.32965,28.329647 19.74384,-19.743836 -74.76114,-74.761138 -19.74383,19.74384" />
        <path
           inkscape:connector-curvature="0"
           id="path1103"
           style="fill:#ed1f7f;fill-opacity:1;fill-rule:nonzero;stroke:none;stroke-width:0.0779954"
           d="m 924.90464,-219.67377 -19.74013,-19.74013 -88.32591,88.32592 46.43241,46.43241 68.58328,-68.58329 8.58676,8.58677 -68.58328,68.583282 19.7393,19.739296 88.32591,-88.325918 -48.06975,-48.06975 -68.59353,68.59354 -6.94859,-6.94859 68.59353,-68.59354" />
      </g>
      <g
         style="opacity:0.10100002;stroke-width:2.21089339"
         transform="matrix(0.44807192,0,0,0.44807192,39.72252,138.12204)"
         id="g1111">
        <path
           d="m 792.31431,-125.80834 26.69135,26.69135 -48.8463,48.8463 -26.69135,-26.691352 -19.74038,19.74037 46.43149,46.43149 68.58667,-68.586671 28.32965,28.329647 19.74384,-19.743836 -74.76114,-74.761138 -19.74383,19.74384"
           style="fill:#ed1f7f;fill-opacity:1;fill-rule:nonzero;stroke:none;stroke-width:0.0779954"
           id="path1107"
           inkscape:connector-curvature="0" />
        <path
           d="m 924.90464,-219.67377 -19.74013,-19.74013 -88.32591,88.32592 46.43241,46.43241 68.58328,-68.58329 8.58676,8.58677 -68.58328,68.583282 19.7393,19.739296 88.32591,-88.325918 -48.06975,-48.06975 -68.59353,68.59354 -6.94859,-6.94859 68.59353,-68.59354"
           style="fill:#ed1f7f;fill-opacity:1;fill-rule:nonzero;stroke:none;stroke-width:0.0779954"
           id="path1109"
           inkscape:connector-curvature="0" />
      </g>
      <path
         inkscape:connector-curvature="0"
         id="path1121"
         d="m 272.52521,275.55645 -8.84662,8.84661 11.9596,11.95974 -0.63714,0.63714 h 18.96778 z"
         style="opacity:0.1;fill:#ed1f7f;fill-opacity:1;fill-rule:nonzero;stroke:none;stroke-width:0.03494754" />
      <path
         inkscape:connector-curvature="0"
         id="path1123"
         d="m 314.24353,233.49965 -39.57636,39.57636 20.80512,20.80498 30.73029,-30.73016 3.84739,3.84752 -30.0016,30.00159 h 17.6893 l 30.00307,-30.00322 -21.5387,-21.53869 -30.7349,30.73489 -3.11339,-3.11353 30.73476,-30.73476 z"
         style="opacity:0.1;fill:#ed1f7f;fill-opacity:1;fill-rule:nonzero;stroke:none;stroke-width:0.03494754" />
      <g
         style="opacity:0.10100002;stroke-width:2.21089339"
         transform="matrix(0.44807192,0,0,0.44807192,-8.0769593,257.17753)"
         id="g1131">
        <path
           d="m 792.31431,-125.80834 26.69135,26.69135 -48.8463,48.8463 -26.69135,-26.691352 -19.74038,19.74037 46.43149,46.43149 68.58667,-68.586671 28.32965,28.329647 19.74384,-19.743836 -74.76114,-74.761138 -19.74383,19.74384"
           style="fill:#ed1f7f;fill-opacity:1;fill-rule:nonzero;stroke:none;stroke-width:0.0779954"
           id="path1127"
           inkscape:connector-curvature="0" />
        <path
           d="m 924.90464,-219.67377 -19.74013,-19.74013 -88.32591,88.32592 46.43241,46.43241 68.58328,-68.58329 8.58676,8.58677 -68.58328,68.583282 19.7393,19.739296 88.32591,-88.325918 -48.06975,-48.06975 -68.59353,68.59354 -6.94859,-6.94859 68.59353,-68.59354"
           style="fill:#ed1f7f;fill-opacity:1;fill-rule:nonzero;stroke:none;stroke-width:0.0779954"
           id="path1129"
           inkscape:connector-curvature="0" />
      </g>
      <path
         d="m 430.1951,117.20964 11.95963,11.95964 -21.88666,21.88666 -11.95964,-11.95965 -8.8451,8.84511 20.80464,20.80465 30.73176,-30.73177 12.69372,12.69373 8.84668,-8.84666 -33.49838,-33.49837 -8.84665,8.84666"
         style="opacity:0.1;fill:#ed1f7f;fill-opacity:1;fill-rule:nonzero;stroke:none;stroke-width:0.03494754"
         id="path1133"
         inkscape:connector-curvature="0" />
      <path
         inkscape:connector-curvature="0"
         id="path1135"
         d="m 480.76006,66.306152 -39.57635,39.576358 20.80511,20.80512 30.73029,-30.730292 3.84738,3.847513 -30.73015,30.730289 8.84457,8.84458 28.56382,-28.56381 V 88.790816 l -10.52616,-10.526153 -30.73476,30.734757 -3.11353,-3.11339 30.7349,-30.734896 z"
         style="opacity:0.1;fill:#ed1f7f;fill-opacity:1;fill-rule:nonzero;stroke:none;stroke-width:0.03494754" />
      <path
         inkscape:connector-curvature="0"
         id="path1149"
         d="m 349.70351,268.95949 -28.04045,28.04045 h 17.68997 l 19.19547,-19.19546 z m 11.95838,11.95851 -16.08194,16.08194 h 32.16387 z"
         style="opacity:0.1;fill:#ed1f7f;fill-opacity:1;fill-rule:nonzero;stroke:none;stroke-width:0.03494754" />
      <g
         id="g1157"
         transform="matrix(0.44807192,0,0,0.44807192,27.382922,292.63739)"
         style="opacity:0.10100002;stroke-width:2.21089339">
        <path
           inkscape:connector-curvature="0"
           id="path1153"
           style="fill:#ed1f7f;fill-opacity:1;fill-rule:nonzero;stroke:none;stroke-width:0.0779954"
           d="m 792.31431,-125.80834 26.69135,26.69135 -48.8463,48.8463 -26.69135,-26.691352 -19.74038,19.74037 46.43149,46.43149 68.58667,-68.586671 28.32965,28.329647 19.74384,-19.743836 -74.76114,-74.761138 -19.74383,19.74384" />
        <path
           inkscape:connector-curvature="0"
           id="path1155"
           style="fill:#ed1f7f;fill-opacity:1;fill-rule:nonzero;stroke:none;stroke-width:0.0779954"
           d="m 924.90464,-219.67377 -19.74013,-19.74013 -88.32591,88.32592 46.43241,46.43241 68.58328,-68.58329 8.58676,8.58677 -68.58328,68.583282 19.7393,19.739296 88.32591,-88.325918 -48.06975,-48.06975 -68.59353,68.59354 -6.94859,-6.94859 68.59353,-68.59354" />
      </g>
      <path
         inkscape:connector-curvature="0"
         id="path1159"
         transform="matrix(0.26458333,0,0,0.26458333,0,11.249969)"
         d="m 1793.3926,501.0625 -33.4375,33.43555 45.2031,45.20312 -82.7227,82.72071 -45.2011,-45.20118 -33.4297,33.42969 78.6308,78.63281 116.1524,-116.15234 47.9766,47.97656 15.4628,-15.46289 v -35.94726 z"
         style="opacity:0.1;fill:#ed1f7f;fill-opacity:1;fill-rule:nonzero;stroke:none;stroke-width:0.13208519" />
      <path
         inkscape:connector-curvature="0"
         id="path1161"
         d="m 503.24473,114.74131 -26.60105,26.60104 20.80498,20.80513 5.79607,-5.79606 v -17.69309 l -5.80108,5.80108 -3.11352,-3.11353 8.9146,-8.91461 z m 0,49.30514 -1.94855,1.94855 1.94855,1.94854 z"
         style="opacity:0.1;fill:#ed1f7f;fill-opacity:1;fill-rule:nonzero;stroke:none;stroke-width:0.03494754" />
      <path
         inkscape:connector-curvature="0"
         id="path1179"
         d="m 426.70221,262.87831 -8.84674,8.84674 11.95973,11.9596 -13.31529,13.31529 h 17.68996 l 4.47031,-4.47031 4.47031,4.47031 h 16.44682 l 0.6232,-0.6232 z m -30.73341,30.73341 -3.38821,3.38822 h 6.77642 z"
         style="opacity:0.1;fill:#ed1f7f;fill-opacity:1;fill-rule:nonzero;stroke:none;stroke-width:0.03494754" />
      <path
         d="m 477.26551,229.66655 -8.84499,-8.84499 -39.57637,39.57636 20.80505,20.80506 30.73024,-30.73025 3.84749,3.84749 -30.73024,30.73025 8.84463,8.84463 39.57637,-39.57637 -21.53872,-21.53871 -30.73483,30.73484 -3.11346,-3.11347 30.73483,-30.73484"
         style="opacity:0.1;fill:#ed1f7f;fill-opacity:1;fill-rule:nonzero;stroke:none;stroke-width:0.03494754"
         id="path1181"
         inkscape:connector-curvature="0" />
      <path
         inkscape:connector-curvature="0"
         id="path1185"
         d="m 503.24473,185.99731 -2.13099,2.131 2.13099,2.13099 z m 0,23.91934 -12.05793,12.05791 -11.95973,-11.95958 -8.84512,8.84511 20.80472,20.80457 12.05806,-12.05806 z"
         style="opacity:0.1;fill:#ed1f7f;fill-opacity:1;fill-rule:nonzero;stroke:none;stroke-width:0.03494754" />
      <path
         inkscape:connector-curvature="0"
         id="path1207"
         d="m 503.24473,256.91701 -38.94071,38.9407 1.14223,1.14223 h 17.68306 l -1.13871,-1.1387 21.25413,-21.25427 z m 0,23.91701 -16.16592,16.16592 h 16.16592 z"
         style="opacity:0.1;fill:#ed1f7f;fill-opacity:1;fill-rule:nonzero;stroke:none;stroke-width:0.03494754" />
      <path
         inkscape:connector-curvature="0"
         id="path1661"
         d="M 108.37142,13.924871 70.669787,51.626504 c 0,0 38.681673,38.681676 58.649793,58.649786 l -59.150001,59.14999 c -14.471719,-0.003 -51.534764,-9.7e-4 -66.0086365,-0.002 C 3.3972429,168.66099 0.99215007,166.2559 0,165.26374 v 57.47899 l 92.254273,-0.002 L 204.72067,110.27418 Z M 0,17.862731 V 93.262747 C 16.937351,76.325396 37.700008,55.56274 37.700008,55.56274 Z"
         style="fill:#ed1f7f;fill-opacity:1;fill-rule:nonzero;stroke:none;stroke-width:0.03494755" />
      <path
         inkscape:connector-curvature="0"
         id="path1663"
         style="fill:#ed1f7f;fill-opacity:1;fill-rule:nonzero;stroke:none;stroke-width:0.03494755"
         d="M 17.625239,111.57853 54.928525,148.88181 92.628558,111.18178 55.325273,73.878495 17.625239,111.57853" />
      <g
         style="stroke-width:2.21089339"
         transform="matrix(0.44807192,0,0,0.44807192,-181.7769,236.63014)"
         id="g1725">
        <path
           d="m 792.31431,-125.80834 26.69135,26.69135 -48.8463,48.8463 -26.69135,-26.691352 -19.74038,19.74037 46.43149,46.43149 68.58667,-68.586671 28.32965,28.329647 19.74384,-19.743836 -74.76114,-74.761138 -19.74383,19.74384"
           style="fill:#ed1f7f;fill-opacity:1;fill-rule:nonzero;stroke:none;stroke-width:0.0779954"
           id="path1675"
           inkscape:connector-curvature="0" />
        <path
           d="m 924.90464,-219.67377 -19.74013,-19.74013 -88.32591,88.32592 46.43241,46.43241 68.58328,-68.58329 8.58676,8.58677 -68.58328,68.583282 19.7393,19.739296 88.32591,-88.325918 -48.06975,-48.06975 -68.59353,68.59354 -6.94859,-6.94859 68.59353,-68.59354"
           style="fill:#ed1f7f;fill-opacity:1;fill-rule:nonzero;stroke:none;stroke-width:0.0779954"
           id="path1677"
           inkscape:connector-curvature="0" />
      </g>
      <g
         style="stroke-width:5.47259808"
         transform="matrix(0.12799913,-0.12799913,0.12799913,0.12799913,-252.28237,659.76403)"
         id="g1721">
        <path
           d="m 3437.1975,-261.66803 c -2.0282,-2.63069 -16.35,-21.17944 -17.7819,-23.03431 v -27.04716 h 69.4867 v 50.08147 z m -45.6999,-77.93862 v 64.86231 l 31.8831,40.86704 h 93.3075 v -105.72935 h -125.1906"
           style="fill:#ed1f7f;fill-opacity:1;fill-rule:nonzero;stroke:none;stroke-width:0.19306117"
           id="path1665"
           inkscape:connector-curvature="0" />
        <path
           d="m 3522.4748,-339.60665 v 27.85715 c 0,0 41.4179,0 48.1489,0 0,7.20566 0,77.8722 0,77.8722 h 27.7908 c 0,0 0,-70.66654 0,-77.8722 6.7375,0 48.1474,0 48.1474,0 v -27.85715 h -124.0871"
           style="fill:#ed1f7f;fill-opacity:1;fill-rule:nonzero;stroke:none;stroke-width:0.19306117"
           id="path1667"
           inkscape:connector-curvature="0" />
        <path
           d="m 3777.866,-311.68956 v -27.91709 h -125.1741 v 64.86231 l 31.8649,40.86704 h 93.3092 v -27.73387 c 0,0 -75.7324,0 -79.481,0 -1.3268,-1.71864 -5.1872,-6.72162 -9.2145,-11.95382 13.5592,0 88.6955,0 88.6955,0 v -27.91547 c 0,0 -89.8845,0 -97.2538,0 v -10.2091 c 7.3693,0 97.2538,0 97.2538,0"
           style="fill:#ed1f7f;fill-opacity:1;fill-rule:nonzero;stroke:none;stroke-width:0.19306117"
           id="path1669"
           inkscape:connector-curvature="0" />
        <path
           d="m 3879.113,-311.7495 c 3.0099,0 18.1745,0 18.1745,0 v -27.85715 h -32.0091 c 0,0 -27.2011,35.25721 -29.4107,38.12619 h -22.0091 c 0,-6.41835 0,-38.12619 0,-38.12619 h -27.9203 v 105.72935 h 27.9203 c 0,0 0,-33.27096 0,-39.75249 h 20.7568 c 2.2194,2.8949 30.5431,39.75249 30.5431,39.75249 h 32.129 v -27.92049 c 0,0 -15.1646,0 -18.1745,0 -2.0282,-2.58824 -16.2986,-20.8164 -17.7501,-22.68586 v -4.57968 c 1.4515,-1.86621 15.7219,-20.09907 17.7501,-22.68617"
           style="fill:#ed1f7f;fill-opacity:1;fill-rule:nonzero;stroke:none;stroke-width:0.19306117"
           id="path1671"
           inkscape:connector-curvature="0" />
        <path
           d="m 3903.7188,-339.60665 v 105.72935 h 27.9204 v -105.72935 h -27.9204"
           style="fill:#ed1f7f;fill-opacity:1;fill-rule:nonzero;stroke:none;stroke-width:0.19306117"
           id="path1673"
           inkscape:connector-curvature="0" />
        <path
           d="m 3385.5827,-311.68956 v -27.91709 h -125.1978 v 64.86231 l 31.8838,40.86704 h 93.314 v -51.64151 h -27.7928 v 23.90764 h -51.7096 c -2.0293,-2.62744 -16.3376,-21.1715 -17.7697,-23.02637 v -27.05202 c 7.1987,0 97.2721,0 97.2721,0"
           style="fill:#ed1f7f;fill-opacity:1;fill-rule:nonzero;stroke:none;stroke-width:0.19306117"
           id="path1679"
           inkscape:connector-curvature="0" />
      </g>
      <path
         inkscape:connector-curvature="0"
         id="rect844"
         d="m 0,261.66538 v 35.33456 h 503.24473 v -35.33456 z"
         style="opacity:0;fill:#ed1f7f;fill-opacity:1;stroke:none;stroke-width:3.41603541;stroke-linecap:butt;stroke-linejoin:round;stroke-miterlimit:4;stroke-dasharray:none;stroke-opacity:1;paint-order:markers stroke fill" />
      <text
         id="text842"
         y="281.81912"
         x="224.1349"
         style="font-style:normal;font-variant:normal;font-weight:normal;font-stretch:normal;font-size:34.91096497px;line-height:1.25;font-family:'Goteki 45';-inkscape-font-specification:'Goteki 45, Normal';font-variant-ligatures:normal;font-variant-caps:normal;font-variant-numeric:normal;font-feature-settings:normal;text-align:start;letter-spacing:0px;word-spacing:0px;writing-mode:lr-tb;text-anchor:start;opacity:0;fill:#ffffff;fill-opacity:1;stroke:none;stroke-width:0.26210663"
         xml:space="preserve"><tspan
           style="font-style:normal;font-variant:normal;font-weight:normal;font-stretch:normal;font-size:34.91096497px;font-family:'Goteki 45';-inkscape-font-specification:'Goteki 45, Normal';font-variant-ligatures:normal;font-variant-caps:normal;font-variant-numeric:normal;font-feature-settings:normal;text-align:start;writing-mode:lr-tb;text-anchor:start;fill:#ffffff;stroke-width:0.26210663"
           y="281.81912"
           x="224.1349"
           id="tspan840"
           sodipodi:role="line">Future Proof</tspan></text>
    </g>
  </g>
</svg>
