<?xml version="1.0" encoding="UTF-8" standalone="no"?>
<!-- Created with Inkscape (http://www.inkscape.org/) -->

<svg
   xmlns:dc="http://purl.org/dc/elements/1.1/"
   xmlns:cc="http://creativecommons.org/ns#"
   xmlns:rdf="http://www.w3.org/1999/02/22-rdf-syntax-ns#"
   xmlns:svg="http://www.w3.org/2000/svg"
   xmlns="http://www.w3.org/2000/svg"
   xmlns:sodipodi="http://sodipodi.sourceforge.net/DTD/sodipodi-0.dtd"
   xmlns:inkscape="http://www.inkscape.org/namespaces/inkscape"
   width="1920"
   height="1080"
   viewBox="0 0 507.99999 285.75001"
   version="1.1"
   id="svg989"
   inkscape:version="0.92.5 (2060ec1f9f, 2020-04-08)"
   sodipodi:docname="icaras.svg"
   inkscape:export-filename="/home/Aidan/Pictures/wipeout-backgrounds/icaras.png"
   inkscape:export-xdpi="96"
   inkscape:export-ydpi="96">
  <defs
     id="defs983" />
  <sodipodi:namedview
     id="base"
     pagecolor="#ffffff"
     bordercolor="#666666"
     borderopacity="1.0"
     inkscape:pageopacity="0.0"
     inkscape:pageshadow="2"
     inkscape:zoom="0.49497475"
     inkscape:cx="940.78786"
     inkscape:cy="428.08472"
     inkscape:document-units="mm"
     inkscape:current-layer="layer1"
     showgrid="false"
     units="px"
     inkscape:window-width="1920"
     inkscape:window-height="993"
     inkscape:window-x="1920"
     inkscape:window-y="0"
     inkscape:window-maximized="1"
     inkscape:snap-page="false"
     inkscape:snap-nodes="false"
     inkscape:snap-bbox="true"
     inkscape:bbox-nodes="false"
     inkscape:snap-bbox-edge-midpoints="false"
     inkscape:snap-bbox-midpoints="true" />
  <metadata
     id="metadata986">
    <rdf:RDF>
      <cc:Work
         rdf:about="">
        <dc:format>image/svg+xml</dc:format>
        <dc:type
           rdf:resource="http://purl.org/dc/dcmitype/StillImage" />
        <dc:title />
      </cc:Work>
    </rdf:RDF>
  </metadata>
  <g
     inkscape:label="Layer 1"
     inkscape:groupmode="layer"
     id="layer1"
     transform="translate(0,-11.249966)">
    <rect
       style="opacity:1;fill:#fad1e3;fill-opacity:1;stroke:none;stroke-width:3.44831419;stroke-linecap:butt;stroke-linejoin:round;stroke-miterlimit:4;stroke-dasharray:none;stroke-opacity:1;paint-order:markers stroke fill"
       id="rect825"
       width="508"
       height="285.75"
       x="0"
       y="11.249966" />
    <g
       id="g919"
       transform="matrix(0.85678612,0,0,0.85678612,12.9973,61.201863)"
       style="stroke-width:1.1671524">
      <path
         d="m 213.64197,173.97574 h 6.12387 v -29.59008 h -9.47279 v 26.24173 l 3.34892,3.34835"
         style="fill:#a61655;fill-opacity:1;fill-rule:nonzero;stroke:none;stroke-width:0.04117455"
         id="path925"
         inkscape:connector-curvature="0" />
      <path
         d="m 251.37191,153.85941 v -9.47375 h -29.60088 v 26.17792 l 3.42124,3.42208 h 26.17964 v -9.47194 h -20.12809 v -10.65431 h 20.12809"
         style="fill:#a61655;fill-opacity:1;fill-rule:nonzero;stroke:none;stroke-width:0.04117455"
         id="path927"
         inkscape:connector-curvature="0" />
      <path
         d="m 253.64309,144.38566 v 26.17792 l 3.42054,3.42208 h 14.70695 v -9.47194 h -8.6554 v -10.65431 h 10.65494 v 16.76798 l 3.34963,3.34656 h 6.12387 v -29.58829 h -29.60053"
         style="fill:#a61655;fill-opacity:1;fill-rule:nonzero;stroke:none;stroke-width:0.04117455"
         id="path929"
         inkscape:connector-curvature="0" />
      <path
         d="m 317.03232,144.38566 v 26.17792 l 3.42054,3.42208 h 14.70695 v -9.47194 h -8.65576 V 153.85941 H 337.159 v 16.76798 l 3.34857,3.34656 h 6.12528 v -29.58829 h -29.60053"
         style="fill:#a61655;fill-opacity:1;fill-rule:nonzero;stroke:none;stroke-width:0.04117455"
         id="path931"
         inkscape:connector-curvature="0" />
      <path
         d="m 285.51339,144.38566 v 26.26516 l 3.33305,3.33484 h 6.14045 v -20.12625 h 20.12668 v -9.47375 h -29.60018"
         style="fill:#a61655;fill-opacity:1;fill-rule:nonzero;stroke:none;stroke-width:0.04117455"
         id="path933"
         inkscape:connector-curvature="0" />
      <path
         d="m 351.86596,163.08236 h 16.80386 v 1.46166 h -20.12879 v 6.02093 l 3.45087,3.45103 h 26.14965 v -10.22807 h 0.0201 v -8.53669 h -20.14538 v -1.39181 h 20.12527 v -9.47375 h -29.60052 v 15.34972 l 3.32493,3.34698"
         style="fill:#a61655;fill-opacity:1;fill-rule:nonzero;stroke:none;stroke-width:0.04117455"
         id="path935"
         inkscape:connector-curvature="0" />
    </g>
    <path
       inkscape:connector-curvature="0"
       id="path937"
       style="fill:#a61655;fill-opacity:1;fill-rule:nonzero;stroke:none;stroke-width:0.03527778"
       d="m 311.21097,144.17902 -18.80675,-18.80559 -103.02358,-0.18687 54.74331,31.63168 16.05551,0.0302 18.80738,18.80656 32.22413,-31.47589" />
    <path
       inkscape:connector-curvature="0"
       id="path939"
       style="fill:#b63422;fill-opacity:1;fill-rule:nonzero;stroke:none;stroke-width:0.03527778"
       d="m 318.31389,179.39177 14.98287,-13.12936 -18.80738,-18.8063 -31.9318,31.93566 h 35.75631" />
    <g
       id="g4662"
       transform="matrix(0.65348356,0,0,0.65348356,18.800579,10.994035)"
       style="opacity:0.5;stroke-width:1.53026032">
      <path
         inkscape:connector-curvature="0"
         id="path4640"
         style="fill:#a61655;fill-opacity:1;fill-rule:nonzero;stroke:none;stroke-width:0.05398419"
         d="M 25.777481,52.881147 47.727822,30.932145 167.97204,30.714043 104.07826,67.633034 85.339035,67.668205 63.387961,89.618337 25.777481,52.881168" />
      <path
         inkscape:connector-curvature="0"
         id="path4642"
         style="fill:#b63422;fill-opacity:1;fill-rule:nonzero;stroke:none;stroke-width:0.05398419"
         d="M 17.487299,93.979783 1.1926476e-6,78.655821 21.951075,56.706003 59.220354,93.979783 H 17.487299" />
    </g>
    <g
       style="opacity:0.5;stroke-width:3.0223825"
       transform="matrix(0.3308648,0,0,0.3308648,128.56755,38.463543)"
       id="g4668">
      <path
         d="M 25.777481,52.881147 47.727822,30.932145 167.97204,30.714043 104.07826,67.633034 85.339035,67.668205 63.387961,89.618337 25.777481,52.881168"
         style="fill:#a61655;fill-opacity:1;fill-rule:nonzero;stroke:none;stroke-width:0.10662295"
         id="path4664"
         inkscape:connector-curvature="0" />
      <path
         d="M 17.487299,93.979783 1.1926476e-6,78.655821 21.951075,56.706003 59.220354,93.979783 H 17.487299"
         style="fill:#b63422;fill-opacity:1;fill-rule:nonzero;stroke:none;stroke-width:0.10662295"
         id="path4666"
         inkscape:connector-curvature="0" />
    </g>
    <g
       style="opacity:0.5;stroke-width:1.53026032"
       transform="matrix(0.65348356,0,0,0.65348356,184.14358,48.043974)"
       id="g4680">
      <path
         d="M 25.777481,52.881147 47.727822,30.932145 167.97204,30.714043 104.07826,67.633034 85.339035,67.668205 63.387961,89.618337 25.777481,52.881168"
         style="fill:#a61655;fill-opacity:1;fill-rule:nonzero;stroke:none;stroke-width:0.05398419"
         id="path4676"
         inkscape:connector-curvature="0" />
      <path
         d="M 17.487299,93.979783 1.1926476e-6,78.655821 21.951075,56.706003 59.220354,93.979783 H 17.487299"
         style="fill:#b63422;fill-opacity:1;fill-rule:nonzero;stroke:none;stroke-width:0.05398419"
         id="path4678"
         inkscape:connector-curvature="0" />
    </g>
    <g
       id="g4686"
       transform="matrix(0.3308648,0,0,0.3308648,293.91056,75.513482)"
       style="opacity:0.5;stroke-width:3.0223825">
      <path
         inkscape:connector-curvature="0"
         id="path4682"
         style="fill:#a61655;fill-opacity:1;fill-rule:nonzero;stroke:none;stroke-width:0.10662295"
         d="M 25.777481,52.881147 47.727822,30.932145 167.97204,30.714043 104.07826,67.633034 85.339035,67.668205 63.387961,89.618337 25.777481,52.881168" />
      <path
         inkscape:connector-curvature="0"
         id="path4684"
         style="fill:#b63422;fill-opacity:1;fill-rule:nonzero;stroke:none;stroke-width:0.10662295"
         d="M 17.487299,93.979783 1.1926476e-6,78.655821 21.951075,56.706003 59.220354,93.979783 H 17.487299" />
    </g>
    <path
       style="opacity:0.5;fill:#a61655;fill-opacity:1;fill-rule:nonzero;stroke:none;stroke-width:0.13333334"
       d="M 71.056641,231.15039 0,231.2793 v 40.92773 z"
       transform="matrix(0.26458333,0,0,0.26458333,0,11.249966)"
       id="path4688"
       inkscape:connector-curvature="0" />
    <g
       style="opacity:0.5;stroke-width:3.0223825"
       transform="matrix(0.3308648,0,0,0.3308648,18.800593,79.806664)"
       id="g4698">
      <path
         d="M 25.777481,52.881147 47.727822,30.932145 167.97204,30.714043 104.07826,67.633034 85.339035,67.668205 63.387961,89.618337 25.777481,52.881168"
         style="fill:#a61655;fill-opacity:1;fill-rule:nonzero;stroke:none;stroke-width:0.10662295"
         id="path4694"
         inkscape:connector-curvature="0" />
      <path
         d="M 17.487299,93.979783 1.1926476e-6,78.655821 21.951075,56.706003 59.220354,93.979783 H 17.487299"
         style="fill:#b63422;fill-opacity:1;fill-rule:nonzero;stroke:none;stroke-width:0.10662295"
         id="path4696"
         inkscape:connector-curvature="0" />
    </g>
    <g
       style="opacity:0.5;stroke-width:1.53026032"
       transform="matrix(0.65348356,0,0,0.65348356,74.376628,89.387095)"
       id="g4704">
      <path
         d="M 25.777481,52.881147 47.727822,30.932145 167.97204,30.714043 104.07826,67.633034 85.339035,67.668205 63.387961,89.618337 25.777481,52.881168"
         style="fill:#a61655;fill-opacity:1;fill-rule:nonzero;stroke:none;stroke-width:0.05398419"
         id="path4700"
         inkscape:connector-curvature="0" />
      <path
         d="M 17.487299,93.979783 1.1926476e-6,78.655821 21.951075,56.706003 59.220354,93.979783 H 17.487299"
         style="fill:#b63422;fill-opacity:1;fill-rule:nonzero;stroke:none;stroke-width:0.05398419"
         id="path4702"
         inkscape:connector-curvature="0" />
    </g>
    <g
       id="g4710"
       transform="matrix(0.3308648,0,0,0.3308648,184.14361,116.8566)"
       style="opacity:0.5;stroke-width:3.0223825">
      <path
         inkscape:connector-curvature="0"
         id="path4706"
         style="fill:#a61655;fill-opacity:1;fill-rule:nonzero;stroke:none;stroke-width:0.10662295"
         d="M 25.777481,52.881147 47.727822,30.932145 167.97204,30.714043 104.07826,67.633034 85.339035,67.668205 63.387961,89.618337 25.777481,52.881168" />
      <path
         inkscape:connector-curvature="0"
         id="path4708"
         style="fill:#b63422;fill-opacity:1;fill-rule:nonzero;stroke:none;stroke-width:0.10662295"
         d="M 17.487299,93.979783 1.1926476e-6,78.655821 21.951075,56.706003 59.220354,93.979783 H 17.487299" />
    </g>
    <path
       style="opacity:0.5;fill:#a61655;fill-opacity:1;fill-rule:nonzero;stroke:none;stroke-width:0.13333334"
       d="m 620.69531,0 80.9961,79.115234 54.21679,-54.214843 46.28321,-0.08594 L 845.13672,0 Z"
       transform="matrix(0.26458333,0,0,0.26458333,0,11.249966)"
       id="path4712"
       inkscape:connector-curvature="0" />
    <path
       style="opacity:0.5;fill:#b63422;fill-opacity:1;fill-rule:nonzero;stroke:none;stroke-width:0.13333334"
       d="m 597.17578,0 -52.04297,52.039062 43.19141,37.847657 H 691.39844 L 601.52344,0 Z"
       transform="matrix(0.26458333,0,0,0.26458333,0,11.249966)"
       id="path4714"
       inkscape:connector-curvature="0" />
    <g
       style="opacity:0.5;stroke-width:3.0223825"
       transform="matrix(0.3308648,0,0,0.3308648,254,1.08777)"
       id="g4722">
      <path
         d="M 25.777481,52.881147 47.727822,30.932145 167.97204,30.714043 104.07826,67.633034 85.339035,67.668205 63.387961,89.618337 25.777481,52.881168"
         style="fill:#a61655;fill-opacity:1;fill-rule:nonzero;stroke:none;stroke-width:0.10662295"
         id="path4718"
         inkscape:connector-curvature="0" />
      <path
         d="M 17.487299,93.979783 1.1926476e-6,78.655821 21.951075,56.706003 59.220354,93.979783 H 17.487299"
         style="fill:#b63422;fill-opacity:1;fill-rule:nonzero;stroke:none;stroke-width:0.10662295"
         id="path4720"
         inkscape:connector-curvature="0" />
    </g>
    <g
       style="opacity:0.5;stroke-width:1.53026032"
       transform="matrix(0.65348356,0,0,0.65348356,349.48659,85.093913)"
       id="g4728">
      <path
         d="M 25.777481,52.881147 47.727822,30.932145 167.97204,30.714043 104.07826,67.633034 85.339035,67.668205 63.387961,89.618337 25.777481,52.881168"
         style="fill:#a61655;fill-opacity:1;fill-rule:nonzero;stroke:none;stroke-width:0.05398419"
         id="path4724"
         inkscape:connector-curvature="0" />
      <path
         d="M 17.487299,93.979783 1.1926476e-6,78.655821 21.951075,56.706003 59.220354,93.979783 H 17.487299"
         style="fill:#b63422;fill-opacity:1;fill-rule:nonzero;stroke:none;stroke-width:0.05398419"
         id="path4726"
         inkscape:connector-curvature="0" />
    </g>
    <path
       style="opacity:0.5;fill:#a61655;fill-opacity:1;fill-rule:nonzero;stroke:none;stroke-width:0.13333334"
       d="m 1920,421.37109 -124.5547,0.22657 -27.4492,27.44726 47.0332,45.94141 27.4492,-27.44922 23.4336,-0.0449 L 1920,436.23828 Z"
       transform="matrix(0.26458333,0,0,0.26458333,0,11.249966)"
       id="path4730"
       inkscape:connector-curvature="0" />
    <path
       d="m 465.0395,143.65802 -5.78593,-5.07016 7.26284,-7.26242 12.33109,12.33258 h -13.808"
       style="opacity:0.5;fill:#b63422;fill-opacity:1;fill-rule:nonzero;stroke:none;stroke-width:0.03527778"
       id="path4732"
       inkscape:connector-curvature="0" />
    <g
       id="g4740"
       transform="matrix(0.65348356,0,0,0.65348356,309.57603,10.668201)"
       style="opacity:0.5;stroke-width:1.53026032">
      <path
         inkscape:connector-curvature="0"
         id="path4736"
         style="fill:#a61655;fill-opacity:1;fill-rule:nonzero;stroke:none;stroke-width:0.05398419"
         d="M 25.777481,52.881147 47.727822,30.932145 167.97204,30.714043 104.07826,67.633034 85.339035,67.668205 63.387961,89.618337 25.777481,52.881168" />
      <path
         inkscape:connector-curvature="0"
         id="path4738"
         style="fill:#b63422;fill-opacity:1;fill-rule:nonzero;stroke:none;stroke-width:0.05398419"
         d="M 17.487299,93.979783 1.1926476e-6,78.655821 21.951075,56.706003 59.220354,93.979783 H 17.487299" />
    </g>
    <g
       style="opacity:0.5;stroke-width:3.0223825"
       transform="matrix(0.3308648,0,0,0.3308648,419.34301,38.137708)"
       id="g4746">
      <path
         d="M 25.777481,52.881147 47.727822,30.932145 167.97204,30.714043 104.07826,67.633034 85.339035,67.668205 63.387961,89.618337 25.777481,52.881168"
         style="fill:#a61655;fill-opacity:1;fill-rule:nonzero;stroke:none;stroke-width:0.10662295"
         id="path4742"
         inkscape:connector-curvature="0" />
      <path
         d="M 17.487299,93.979783 1.1926476e-6,78.655821 21.951075,56.706003 59.220354,93.979783 H 17.487299"
         style="fill:#b63422;fill-opacity:1;fill-rule:nonzero;stroke:none;stroke-width:0.10662295"
         id="path4744"
         inkscape:connector-curvature="0" />
    </g>
    <g
       aria-label="flying high"
       style="font-style:normal;font-variant:normal;font-weight:normal;font-stretch:normal;font-size:36.11772156px;line-height:1.25;font-family:Icaras;-inkscape-font-specification:'Icaras, Normal';font-variant-ligatures:normal;font-variant-caps:normal;font-variant-numeric:normal;font-feature-settings:normal;text-align:start;letter-spacing:0px;word-spacing:0px;writing-mode:lr-tb;text-anchor:start;fill:#ffffff;fill-opacity:1;stroke:none;stroke-width:0.26458335"
       id="text4752"
       transform="translate(-2.6458334,2.6458334)">
      <path
         d="m 289.89202,55.756668 -1.12868,-1.128679 -1.12868,-1.128679 -1.12868,-1.128678 V 35.44045 h 20.31622 v 6.772073 h -13.54415 v 1.128678 h 9.02943 v 4.514716 h -9.02943 v 7.900751 z"
         style="font-style:normal;font-variant:normal;font-weight:normal;font-stretch:normal;font-size:36.11772156px;font-family:Icaras;-inkscape-font-specification:'Icaras, Normal';font-variant-ligatures:normal;font-variant-caps:normal;font-variant-numeric:normal;font-feature-settings:normal;text-align:start;writing-mode:lr-tb;text-anchor:start;fill:#ffffff;fill-opacity:1;stroke-width:0.26458335"
         id="path4756"
         inkscape:connector-curvature="0" />
      <path
         d="m 311.44273,55.756668 -1.12868,-1.128679 -1.12868,-1.128679 -1.12868,-1.128678 V 35.44045 h 6.77207 v 13.544145 h 13.54415 v 6.772073 z"
         style="font-style:normal;font-variant:normal;font-weight:normal;font-stretch:normal;font-size:36.11772156px;font-family:Icaras;-inkscape-font-specification:'Icaras, Normal';font-variant-ligatures:normal;font-variant-caps:normal;font-variant-numeric:normal;font-feature-settings:normal;text-align:start;writing-mode:lr-tb;text-anchor:start;fill:#ffffff;fill-opacity:1;stroke-width:0.26458335"
         id="path4758"
         inkscape:connector-curvature="0" />
      <path
         d="m 339.76551,55.756668 -1.12868,-1.128679 -1.12868,-1.128679 -1.12867,-1.128678 v -4.514715 h -3.38604 l -1.12868,-1.128679 -1.12868,-1.128679 -1.12868,-1.128679 v -9.02943 h 6.77208 v 6.772073 h 6.77207 V 35.44045 h 6.77207 v 12.415467 h -6.77207 v 7.900751 z"
         style="font-style:normal;font-variant:normal;font-weight:normal;font-stretch:normal;font-size:36.11772156px;font-family:Icaras;-inkscape-font-specification:'Icaras, Normal';font-variant-ligatures:normal;font-variant-caps:normal;font-variant-numeric:normal;font-feature-settings:normal;text-align:start;writing-mode:lr-tb;text-anchor:start;fill:#ffffff;fill-opacity:1;stroke-width:0.26458335"
         id="path4760"
         inkscape:connector-curvature="0" />
      <path
         d="m 354.54415,55.756668 -1.12868,-1.128679 -1.12868,-1.128679 -1.12868,-1.128678 V 35.44045 h 6.77207 v 20.316218 z"
         style="font-style:normal;font-variant:normal;font-weight:normal;font-stretch:normal;font-size:36.11772156px;font-family:Icaras;-inkscape-font-specification:'Icaras, Normal';font-variant-ligatures:normal;font-variant-caps:normal;font-variant-numeric:normal;font-feature-settings:normal;text-align:start;writing-mode:lr-tb;text-anchor:start;fill:#ffffff;fill-opacity:1;stroke-width:0.26458335"
         id="path4762"
         inkscape:connector-curvature="0" />
      <path
         d="m 362.55072,55.756668 -1.12868,-1.128679 -1.12868,-1.128679 -1.12868,-1.128678 V 35.44045 h 20.31622 v 20.316218 h -3.38604 l -1.12868,-1.128679 -1.12868,-1.128679 -1.12867,-1.128678 V 42.212523 h -6.77208 v 13.544145 z"
         style="font-style:normal;font-variant:normal;font-weight:normal;font-stretch:normal;font-size:36.11772156px;font-family:Icaras;-inkscape-font-specification:'Icaras, Normal';font-variant-ligatures:normal;font-variant-caps:normal;font-variant-numeric:normal;font-feature-settings:normal;text-align:start;writing-mode:lr-tb;text-anchor:start;fill:#ffffff;fill-opacity:1;stroke-width:0.26458335"
         id="path4764"
         inkscape:connector-curvature="0" />
      <path
         d="m 384.10143,55.756668 -1.12868,-1.128679 -1.12868,-1.128679 -1.12868,-1.128678 V 35.44045 h 20.31622 v 6.772073 h -13.54414 v 6.772072 h 6.77207 v -1.128678 l -1.12868,-1.128679 -1.12868,-1.128679 -1.12868,-1.128679 v -1.128679 h 10.15811 v 12.415467 z"
         style="font-style:normal;font-variant:normal;font-weight:normal;font-stretch:normal;font-size:36.11772156px;font-family:Icaras;-inkscape-font-specification:'Icaras, Normal';font-variant-ligatures:normal;font-variant-caps:normal;font-variant-numeric:normal;font-feature-settings:normal;text-align:start;writing-mode:lr-tb;text-anchor:start;fill:#ffffff;fill-opacity:1;stroke-width:0.26458335"
         id="path4766"
         inkscape:connector-curvature="0" />
      <path
         d="m 415.81025,55.756668 -1.12868,-1.128679 -1.12868,-1.128679 -1.12868,-1.128678 V 35.44045 h 6.77207 v 7.900751 h 6.77208 V 35.44045 h 6.77207 v 20.316218 h -3.38604 l -1.12868,-1.128679 -1.12868,-1.128679 -1.12867,-1.128678 v -4.514715 h -6.77208 v 7.900751 z"
         style="font-style:normal;font-variant:normal;font-weight:normal;font-stretch:normal;font-size:36.11772156px;font-family:Icaras;-inkscape-font-specification:'Icaras, Normal';font-variant-ligatures:normal;font-variant-caps:normal;font-variant-numeric:normal;font-feature-settings:normal;text-align:start;writing-mode:lr-tb;text-anchor:start;fill:#ffffff;fill-opacity:1;stroke-width:0.26458335"
         id="path4768"
         inkscape:connector-curvature="0" />
      <path
         d="m 437.36095,55.756668 -1.12868,-1.128679 -1.12868,-1.128679 -1.12868,-1.128678 V 35.44045 h 6.77208 v 20.316218 z"
         style="font-style:normal;font-variant:normal;font-weight:normal;font-stretch:normal;font-size:36.11772156px;font-family:Icaras;-inkscape-font-specification:'Icaras, Normal';font-variant-ligatures:normal;font-variant-caps:normal;font-variant-numeric:normal;font-feature-settings:normal;text-align:start;writing-mode:lr-tb;text-anchor:start;fill:#ffffff;fill-opacity:1;stroke-width:0.26458335"
         id="path4770"
         inkscape:connector-curvature="0" />
      <path
         d="m 445.36753,55.756668 -1.12868,-1.128679 -1.12868,-1.128679 -1.12868,-1.128678 V 35.44045 h 20.31622 v 6.772073 h -13.54415 v 6.772072 h 6.77208 v -1.128678 l -1.12868,-1.128679 -1.12868,-1.128679 -1.12868,-1.128679 v -1.128679 h 10.15811 v 12.415467 z"
         style="font-style:normal;font-variant:normal;font-weight:normal;font-stretch:normal;font-size:36.11772156px;font-family:Icaras;-inkscape-font-specification:'Icaras, Normal';font-variant-ligatures:normal;font-variant-caps:normal;font-variant-numeric:normal;font-feature-settings:normal;text-align:start;writing-mode:lr-tb;text-anchor:start;fill:#ffffff;fill-opacity:1;stroke-width:0.26458335"
         id="path4772"
         inkscape:connector-curvature="0" />
      <path
         d="m 466.91823,55.756668 -1.12868,-1.128679 -1.12868,-1.128679 -1.12867,-1.128678 V 35.44045 h 6.77207 v 7.900751 h 6.77207 V 35.44045 h 6.77207 v 20.316218 h -3.38603 l -1.12868,-1.128679 -1.12868,-1.128679 -1.12868,-1.128678 v -4.514715 h -6.77207 v 7.900751 z"
         style="font-style:normal;font-variant:normal;font-weight:normal;font-stretch:normal;font-size:36.11772156px;font-family:Icaras;-inkscape-font-specification:'Icaras, Normal';font-variant-ligatures:normal;font-variant-caps:normal;font-variant-numeric:normal;font-feature-settings:normal;text-align:start;writing-mode:lr-tb;text-anchor:start;fill:#ffffff;fill-opacity:1;stroke-width:0.26458335"
         id="path4774"
         inkscape:connector-curvature="0" />
    </g>
    <text
       xml:space="preserve"
       style="font-style:normal;font-variant:normal;font-weight:normal;font-stretch:normal;font-size:36.11772156px;line-height:1.25;font-family:Icaras;-inkscape-font-specification:'Icaras, Normal';font-variant-ligatures:normal;font-variant-caps:normal;font-variant-numeric:normal;font-feature-settings:normal;text-align:start;letter-spacing:0px;word-spacing:0px;writing-mode:lr-tb;text-anchor:start;fill:#a61655;fill-opacity:1;stroke:none;stroke-width:0.26458335"
       x="286.50598"
       y="55.756668"
       id="text4626"><tspan
         sodipodi:role="line"
         id="tspan4624"
         x="286.50598"
         y="55.756668"
         style="font-style:normal;font-variant:normal;font-weight:normal;font-stretch:normal;font-size:36.11772156px;font-family:Icaras;-inkscape-font-specification:'Icaras, Normal';font-variant-ligatures:normal;font-variant-caps:normal;font-variant-numeric:normal;font-feature-settings:normal;text-align:start;writing-mode:lr-tb;text-anchor:start;fill:#a61655;fill-opacity:1;stroke-width:0.26458335">flying high</tspan></text>
  </g>
</svg>
