<?xml version="1.0" encoding="UTF-8" standalone="no"?>
<!-- Created with Inkscape (http://www.inkscape.org/) -->

<svg
   xmlns:dc="http://purl.org/dc/elements/1.1/"
   xmlns:cc="http://creativecommons.org/ns#"
   xmlns:rdf="http://www.w3.org/1999/02/22-rdf-syntax-ns#"
   xmlns:svg="http://www.w3.org/2000/svg"
   xmlns="http://www.w3.org/2000/svg"
   xmlns:sodipodi="http://sodipodi.sourceforge.net/DTD/sodipodi-0.dtd"
   xmlns:inkscape="http://www.inkscape.org/namespaces/inkscape"
   width="1920"
   height="1080"
   viewBox="0 0 507.99999 285.75001"
   version="1.1"
   id="svg1431"
   inkscape:version="0.92.5 (2060ec1f9f, 2020-04-08)"
   sodipodi:docname="piranha-wallpaper-16by9-1.svg"
   inkscape:export-filename="/home/Aidan/Pictures/wipeout-backgrounds/piranha.png"
   inkscape:export-xdpi="96"
   inkscape:export-ydpi="96">
  <defs
     id="defs1425" />
  <sodipodi:namedview
     id="base"
     pagecolor="#ffffff"
     bordercolor="#666666"
     borderopacity="1.0"
     inkscape:pageopacity="0.0"
     inkscape:pageshadow="2"
     inkscape:zoom="0.7"
     inkscape:cx="761.13143"
     inkscape:cy="518.9404"
     inkscape:document-units="mm"
     inkscape:current-layer="layer1"
     showgrid="false"
     units="px"
     inkscape:window-width="1920"
     inkscape:window-height="993"
     inkscape:window-x="1920"
     inkscape:window-y="0"
     inkscape:window-maximized="1"
     inkscape:snap-page="true"
     inkscape:snap-bbox="true"
     inkscape:snap-bbox-midpoints="true" />
  <metadata
     id="metadata1428">
    <rdf:RDF>
      <cc:Work
         rdf:about="">
        <dc:format>image/svg+xml</dc:format>
        <dc:type
           rdf:resource="http://purl.org/dc/dcmitype/StillImage" />
        <dc:title />
      </cc:Work>
    </rdf:RDF>
  </metadata>
  <g
     inkscape:label="Layer 1"
     inkscape:groupmode="layer"
     id="layer1"
     transform="translate(0,-11.249983)">
    <rect
       style="opacity:1;fill:#cd1e25;fill-opacity:1;stroke:none;stroke-width:3.44831443;stroke-linecap:butt;stroke-linejoin:round;stroke-miterlimit:4;stroke-dasharray:none;stroke-opacity:1;paint-order:markers stroke fill"
       id="rect856"
       width="508"
       height="285.75"
       x="0"
       y="11.249983" />
    <path
       style="opacity:0.51265821;fill:#dbb524;fill-opacity:1;stroke-width:3.77952743"
       d="M 663.9043,876.4375 710.87891,1014.6211 687.87109,1080 h 73.05079 l 98.52929,-65.5 z m -86.36328,41.59766 48.67382,96.95704 L 593.69727,1080 h 15.11132 l 64.88868,-65.6602 z m -59.88086,41.60742 27.85156,54.85742 -27.85156,51.9629 51.30468,-51.9629 z m -56.18555,30.7207 v 48.94142 L 486.3418,1014.5 Z"
       transform="matrix(0.26458333,0,0,0.26458333,0,11.249983)"
       id="path1050"
       inkscape:connector-curvature="0" />
    <path
       sodipodi:nodetypes="ccccccccccccccccccc"
       inkscape:connector-curvature="0"
       id="path987"
       d="M 53.60029,117.06607 65.5898,82.996118 53.16097,46.434878 104.89923,82.963928 Z M 43.18881,83.093818 30.31059,57.441027 55.75196,82.921328 30.48683,108.48683 Z M 21.8361,82.963918 14.46743,68.449343 28.04138,82.963918 14.46743,96.712578 Z m -22.23467,-6.386402 6.57955,6.386402 -6.57955,6.56305 z"
       style="opacity:0.51265821;fill:#dbb524;fill-opacity:1;stroke-width:0.99999994" />
    <path
       style="opacity:0.51265821;fill:#dbb524;fill-opacity:1;stroke-width:0.99999994"
       d="m 115.61435,142.33201 8.38659,-23.83171 -8.69389,-25.57435 36.19058,25.55183 z m -7.28276,-23.76337 -9.00823,-17.94396 17.79607,17.82331 -17.67279,17.88289 z m -14.93608,-0.0909 -5.15434,-10.15285 9.49489,10.15285 -9.49489,9.6171 z m -15.55301,-4.46725 4.60235,4.46725 -4.60235,4.59081 z"
       id="path989"
       inkscape:connector-curvature="0"
       sodipodi:nodetypes="ccccccccccccccccccc" />
    <path
       style="opacity:0.51265821;fill:#dbb524;fill-opacity:1;stroke-width:3.77952743"
       d="M 49.285156,381.55469 74.664062,456.20703 50.181641,525.77539 154.92969,456.14258 Z M 2.6269531,404.02734 28.923828,456.4082 2.9863281,508.25781 54.576172,456.05469 Z"
       transform="matrix(0.26458333,0,0,0.26458333,0,11.249983)"
       id="path991"
       inkscape:connector-curvature="0" />
    <path
       style="opacity:1;fill:#fbc907;fill-opacity:1;stroke-width:0.99999994"
       d="m 157.80444,81.881173 11.98951,-34.06995 -12.42883,-36.56124 51.73826,36.52905 z m -10.41148,-33.97225 -12.87822,-25.652791 25.44137,25.480301 -25.26513,25.5655 z m -21.35271,-0.1299 -7.36867,-14.514575 13.57395,14.514575 -13.57395,13.74866 z m -22.23467,-6.386402 6.57955,6.386402 -6.57955,6.56305 z"
       id="path917"
       inkscape:connector-curvature="0"
       sodipodi:nodetypes="ccccccccccccccccccc" />
    <path
       style="fill:#fbc907;fill-opacity:1;fill-rule:nonzero;stroke:none;stroke-width:0.13333334"
       d="m 1870.7031,0 c -146.8466,32.45874 -292.9414,129.14209 -396.3301,277.625 -91.4166,131.3055 -136.2196,283.03504 -126.1328,427.23438 10.1016,144.19192 73.8627,263.6017 179.5528,336.22462 22.5865,15.5196 46.5147,28.4948 71.5332,38.916 H 1920 V 885 l -37.8086,-11.21875 18.1367,85.79297 c -0.5173,0.1618 -1.0275,0.32091 -1.5449,0.47851 -32.4585,9.66195 -64.589,15.12317 -95.877,16.49219 l -17.5585,-114.65039 -77.9395,105.35156 c -34.972,-8.75455 -67.8443,-23.42403 -97.6426,-43.90234 -20.3682,-13.98731 -38.6645,-30.26353 -54.791,-48.55859 l 77.2715,-118.08985 -132.5957,28.01172 c -11.0518,-27.1711 -18.9155,-56.5066 -23.3223,-87.60742 l 83.8281,-38.78516 -86.7617,-54.15234 c 2.2824,-31.29532 7.7545,-62.71434 16.3223,-93.79688 38.5642,-27.84994 79.029,-49.11406 119.9121,-63.79492 l 6.3399,159.34766 160.2167,-181.87891 c 22.7973,2.19421 45.0363,6.69904 66.4649,13.53125 L 1758.6836,701.83984 1920,604.11133 V 0 Z m -34.7265,113.31836 c -0.6495,42.46093 5.5342,84.28405 19.4004,123.52344 3.4601,9.79325 7.3442,19.2113 11.5859,28.25976 -85.5017,-13.59103 -177.3858,-0.92276 -266.0762,36.47461 62.998,-90.3012 146.8986,-154.92232 235.0899,-188.25781 z M 1920,779.08789 1887.2441,836.43945 1920,819.90039 Z"
       transform="matrix(0.26458333,0,0,0.26458333,0,11.249983)"
       id="path862"
       inkscape:connector-curvature="0" />
    <g
       id="g879"
       transform="matrix(0.74579202,0,0,0.74579202,51.445936,36.45878)"
       style="stroke-width:1.34085643">
      <path
         d="m 55.882666,155.05202 v -5.27275 h -34.82916 v 5.27275 z m 5.34182,0.026 -5.35633,5.31884 h -34.81465 v 10.75778 h -5.34777 V 149.7793 l 5.35758,-5.33757 h 34.80746 l 5.35371,5.31673 v 5.31956"
         style="fill:#fbc907;fill-opacity:1;fill-rule:nonzero;stroke:none;stroke-width:0.04730244"
         id="path2091"
         inkscape:connector-curvature="0" />
      <path
         d="m 72.214157,171.15461 h -5.34531 V 144.4417 h 5.34531 v 26.71291"
         style="fill:#fbc907;fill-opacity:1;fill-rule:nonzero;stroke:none;stroke-width:0.04730244"
         id="path2093"
         inkscape:connector-curvature="0" />
      <path
         d="m 118.03208,155.05628 v -5.27701 H 83.198157 v 5.27275 z m 5.35327,16.08981 -5.34771,0.009 -5.36364,-10.75649 -29.475843,-10e-4 v 10.75778 h -5.33964 v -21.37534 l 5.3619,-5.33757 h 34.811663 l 5.3452,5.31749 v 5.32142 l -5.35208,5.32518 5.36015,10.7403"
         style="fill:#fbc907;fill-opacity:1;fill-rule:nonzero;stroke:none;stroke-width:0.04730244"
         id="path2095"
         inkscape:connector-curvature="0" />
      <path
         d="m 276.87447,171.14609 -5.34498,0.009 V 160.3986 h -34.83457 v 10.75649 l -5.33407,-0.009 V 144.4417 h 5.33407 v 10.61458 h 34.83457 V 144.4417 h 5.34498 v 26.70439"
         style="fill:#fbc907;fill-opacity:1;fill-rule:nonzero;stroke:none;stroke-width:0.04730244"
         id="path2097"
         inkscape:connector-curvature="0" />
      <path
         d="m 169.2013,155.01067 v -5.27526 h -34.83348 v 5.27526 z m 5.34498,16.08811 -5.34498,0.007 v -10.75565 h -34.83348 v 10.75565 l -5.34171,0.049 v -21.4192 l 5.3548,-5.344 h 34.80948 l 5.35589,5.344 v 21.36337"
         style="fill:#fbc907;fill-opacity:1;fill-rule:nonzero;stroke:none;stroke-width:0.04730244"
         id="path2099"
         inkscape:connector-curvature="0" />
      <path
         d="m 225.71147,171.14609 -5.34607,0.009 v -21.37534 h -34.8313 v 21.37534 l -5.3428,-0.009 v -21.36682 l 5.35153,-5.33757 h 34.81384 l 5.3548,5.33757 v 21.36682"
         style="fill:#fbc907;fill-opacity:1;fill-rule:nonzero;stroke:none;stroke-width:0.04730244"
         id="path2101"
         inkscape:connector-curvature="0" />
      <path
         d="m 322.69795,155.01067 v -5.27526 h -34.8313 v 5.27526 z m 5.33952,16.08811 -5.33952,0.007 v -10.75565 h -34.8313 v 10.75565 l -5.34825,0.049 v -21.4192 l 5.36244,-5.344 h 34.80729 l 5.34934,5.344 v 21.36337"
         style="fill:#fbc907;fill-opacity:1;fill-rule:nonzero;stroke:none;stroke-width:0.04730244"
         id="path2103"
         inkscape:connector-curvature="0" />
      <path
         d="m 339.02747,171.15461 h -5.34498 v -4.65991 h 5.34498 v 4.65991"
         style="fill:#fbc907;fill-opacity:1;fill-rule:nonzero;stroke:none;stroke-width:0.04730244"
         id="path2105"
         inkscape:connector-curvature="0" />
      <path
         d="m 384.492,155.02049 v -5.27319 h -34.83021 v 5.27319 z m 5.34389,16.08085 -5.34389,0.0183 v -10.75863 h -34.83021 v 10.75863 l -5.3428,0.035 V 149.7473 l 5.35153,-5.34607 h 34.81057 l 5.3548,5.34607 v 21.35404"
         style="fill:#fbc907;fill-opacity:1;fill-rule:nonzero;stroke:none;stroke-width:0.04730244"
         id="path2107"
         inkscape:connector-curvature="0" />
    </g>
    <rect
       style="opacity:1;fill:#fbc907;fill-opacity:1;stroke:none;stroke-width:3.44831443;stroke-linecap:butt;stroke-linejoin:round;stroke-miterlimit:4;stroke-dasharray:none;stroke-opacity:1;paint-order:markers stroke fill"
       id="rect881"
       width="279.02301"
       height="19.959999"
       x="63.15942"
       y="166.71059" />
    <g
       aria-label="hungry for speed"
       style="font-style:normal;font-variant:normal;font-weight:normal;font-stretch:normal;font-size:17.12478065px;line-height:1.25;font-family:'Virgo 01';-inkscape-font-specification:'Virgo 01, ';font-variant-ligatures:normal;font-variant-caps:normal;font-variant-numeric:normal;font-feature-settings:normal;text-align:start;letter-spacing:0px;word-spacing:0px;writing-mode:lr-tb;text-anchor:start;fill:#cd1e25;fill-opacity:1;stroke:none;stroke-width:0.26458332"
       id="text885">
      <path
         d="M 67.60424,182.04208 V 171.3391 h 2.140598 v 4.28119 h 12.843585 v -4.28119 h 2.140598 v 10.70298 h -2.140598 v -4.28119 H 69.744838 v 4.28119 z"
         style="font-style:normal;font-variant:normal;font-weight:normal;font-stretch:normal;font-size:17.12478065px;font-family:Piranha;-inkscape-font-specification:'Piranha, Normal';font-variant-ligatures:normal;font-variant-caps:normal;font-variant-numeric:normal;font-feature-settings:normal;text-align:start;writing-mode:lr-tb;text-anchor:start;fill:#cd1e25;fill-opacity:1;stroke-width:0.26458332"
         id="path857"
         inkscape:connector-curvature="0" />
      <path
         d="m 87.889747,182.04208 -2.140598,-2.14059 v -8.56239 h 2.140598 v 8.56239 h 12.843583 v -8.56239 h 2.1406 v 8.56239 l -2.1406,2.14059 z"
         style="font-style:normal;font-variant:normal;font-weight:normal;font-stretch:normal;font-size:17.12478065px;font-family:Piranha;-inkscape-font-specification:'Piranha, Normal';font-variant-ligatures:normal;font-variant-caps:normal;font-variant-numeric:normal;font-feature-settings:normal;text-align:start;writing-mode:lr-tb;text-anchor:start;fill:#cd1e25;fill-opacity:1;stroke-width:0.26458332"
         id="path859"
         inkscape:connector-curvature="0" />
      <path
         d="m 103.89406,182.04208 v -8.56239 l 2.1406,-2.14059 h 12.84358 l 2.1406,2.14059 v 8.56239 h -2.1406 v -8.56239 h -12.84358 v 8.56239 z"
         style="font-style:normal;font-variant:normal;font-weight:normal;font-stretch:normal;font-size:17.12478065px;font-family:Piranha;-inkscape-font-specification:'Piranha, Normal';font-variant-ligatures:normal;font-variant-caps:normal;font-variant-numeric:normal;font-feature-settings:normal;text-align:start;writing-mode:lr-tb;text-anchor:start;fill:#cd1e25;fill-opacity:1;stroke-width:0.26458332"
         id="path861"
         inkscape:connector-curvature="0" />
      <path
         d="m 124.17956,182.04208 -2.14059,-2.14059 v -6.4218 l 2.14059,-2.14059 h 14.98419 v 2.14059 h -14.98419 v 6.4218 h 12.84359 v -2.1406 h -10.70299 v -2.1406 h 10.70299 l 2.1406,2.1406 v 2.1406 l -2.1406,2.14059 z"
         style="font-style:normal;font-variant:normal;font-weight:normal;font-stretch:normal;font-size:17.12478065px;font-family:Piranha;-inkscape-font-specification:'Piranha, Normal';font-variant-ligatures:normal;font-variant-caps:normal;font-variant-numeric:normal;font-feature-settings:normal;text-align:start;writing-mode:lr-tb;text-anchor:start;fill:#cd1e25;fill-opacity:1;stroke-width:0.26458332"
         id="path863"
         inkscape:connector-curvature="0" />
      <path
         d="m 155.16806,175.62029 v -2.1406 h -12.84359 v 2.1406 z m -14.98418,6.42179 v -8.56239 l 2.14059,-2.14059 h 12.84359 l 2.1406,2.14059 v 2.1406 l -2.1406,2.1406 1.0703,2.1406 1.0703,2.14059 h -2.1406 l -1.0703,-2.14059 -1.0703,-2.1406 h -10.70299 v 4.28119 z"
         style="font-style:normal;font-variant:normal;font-weight:normal;font-stretch:normal;font-size:17.12478065px;font-family:Piranha;-inkscape-font-specification:'Piranha, Normal';font-variant-ligatures:normal;font-variant-caps:normal;font-variant-numeric:normal;font-feature-settings:normal;text-align:start;writing-mode:lr-tb;text-anchor:start;fill:#cd1e25;fill-opacity:1;stroke-width:0.26458332"
         id="path865"
         inkscape:connector-curvature="0" />
      <path
         d="m 165.82088,182.04208 v -4.28119 l -1.0703,-1.0703 v 0 l -1.0703,-1.0703 -1.0703,-1.0703 v 0 l -1.07029,-1.0703 h -3.2109 v -2.14059 h 4.28119 l 2.1406,2.14059 2.1406,2.1406 2.1406,-2.1406 2.14059,-2.14059 h 4.2812 v 2.14059 h -3.22762 l -1.05358,1.0703 -1.07029,1.0703 h -0.0167 l -1.05357,1.0703 -1.0703,1.0703 v 4.28119 z"
         style="font-style:normal;font-variant:normal;font-weight:normal;font-stretch:normal;font-size:17.12478065px;font-family:Piranha;-inkscape-font-specification:'Piranha, Normal';font-variant-ligatures:normal;font-variant-caps:normal;font-variant-numeric:normal;font-feature-settings:normal;text-align:start;writing-mode:lr-tb;text-anchor:start;fill:#cd1e25;fill-opacity:1;stroke-width:0.26458332"
         id="path867"
         inkscape:connector-curvature="0" />
      <path
         d="m 185.03609,182.04208 v -8.56239 l 2.14059,-2.14059 h 14.98419 v 2.14059 h -14.98419 v 2.1406 h 14.98419 v 2.1406 h -14.98419 v 4.28119 z"
         style="font-style:normal;font-variant:normal;font-weight:normal;font-stretch:normal;font-size:17.12478065px;font-family:Piranha;-inkscape-font-specification:'Piranha, Normal';font-variant-ligatures:normal;font-variant-caps:normal;font-variant-numeric:normal;font-feature-settings:normal;text-align:start;writing-mode:lr-tb;text-anchor:start;fill:#cd1e25;fill-opacity:1;stroke-width:0.26458332"
         id="path869"
         inkscape:connector-curvature="0" />
      <path
         d="m 218.16518,179.90149 v -6.4218 h -12.84359 v 6.4218 z m -12.84359,2.14059 -2.1406,-2.14059 v -6.4218 l 2.1406,-2.14059 h 12.84359 l 2.14059,2.14059 v 6.4218 l -2.14059,2.14059 z"
         style="font-style:normal;font-variant:normal;font-weight:normal;font-stretch:normal;font-size:17.12478065px;font-family:Piranha;-inkscape-font-specification:'Piranha, Normal';font-variant-ligatures:normal;font-variant-caps:normal;font-variant-numeric:normal;font-feature-settings:normal;text-align:start;writing-mode:lr-tb;text-anchor:start;fill:#cd1e25;fill-opacity:1;stroke-width:0.26458332"
         id="path871"
         inkscape:connector-curvature="0" />
      <path
         d="m 236.31009,175.62029 v -2.1406 H 223.4665 v 2.1406 z m -14.98419,6.42179 v -8.56239 l 2.1406,-2.14059 h 12.84359 l 2.1406,2.14059 v 2.1406 l -2.1406,2.1406 1.0703,2.1406 1.0703,2.14059 h -2.1406 l -1.0703,-2.14059 -1.0703,-2.1406 H 223.4665 v 4.28119 z"
         style="font-style:normal;font-variant:normal;font-weight:normal;font-stretch:normal;font-size:17.12478065px;font-family:Piranha;-inkscape-font-specification:'Piranha, Normal';font-variant-ligatures:normal;font-variant-caps:normal;font-variant-numeric:normal;font-feature-settings:normal;text-align:start;writing-mode:lr-tb;text-anchor:start;fill:#cd1e25;fill-opacity:1;stroke-width:0.26458332"
         id="path873"
         inkscape:connector-curvature="0" />
      <path
         d="m 248.0332,182.04208 v -2.14059 h 14.98418 v -2.1406 h -12.84359 l -2.14059,-2.1406 v -2.1406 l 2.14059,-2.14059 h 14.98419 v 2.14059 h -14.98419 v 2.1406 h 12.84359 l 2.1406,2.1406 v 2.1406 l -2.1406,2.14059 z"
         style="font-style:normal;font-variant:normal;font-weight:normal;font-stretch:normal;font-size:17.12478065px;font-family:Piranha;-inkscape-font-specification:'Piranha, Normal';font-variant-ligatures:normal;font-variant-caps:normal;font-variant-numeric:normal;font-feature-settings:normal;text-align:start;writing-mode:lr-tb;text-anchor:start;fill:#cd1e25;fill-opacity:1;stroke-width:0.26458332"
         id="path875"
         inkscape:connector-curvature="0" />
      <path
         d="m 281.16229,175.62029 v -2.1406 h -12.84358 v 2.1406 z m -14.98418,6.42179 v -8.56239 l 2.1406,-2.14059 h 12.84358 l 2.1406,2.14059 v 2.1406 l -2.1406,2.1406 h -12.84358 v 4.28119 z"
         style="font-style:normal;font-variant:normal;font-weight:normal;font-stretch:normal;font-size:17.12478065px;font-family:Piranha;-inkscape-font-specification:'Piranha, Normal';font-variant-ligatures:normal;font-variant-caps:normal;font-variant-numeric:normal;font-feature-settings:normal;text-align:start;writing-mode:lr-tb;text-anchor:start;fill:#cd1e25;fill-opacity:1;stroke-width:0.26458332"
         id="path877"
         inkscape:connector-curvature="0" />
      <path
         d="m 286.46362,182.04208 -2.1406,-2.14059 v -6.4218 l 2.1406,-2.14059 h 14.98418 v 2.14059 h -14.98418 v 2.1406 h 14.98418 v 2.1406 h -14.98418 v 2.1406 h 14.98418 v 2.14059 z"
         style="font-style:normal;font-variant:normal;font-weight:normal;font-stretch:normal;font-size:17.12478065px;font-family:Piranha;-inkscape-font-specification:'Piranha, Normal';font-variant-ligatures:normal;font-variant-caps:normal;font-variant-numeric:normal;font-feature-settings:normal;text-align:start;writing-mode:lr-tb;text-anchor:start;fill:#cd1e25;fill-opacity:1;stroke-width:0.26458332"
         id="path879"
         inkscape:connector-curvature="0" />
      <path
         d="m 304.60853,182.04208 -2.1406,-2.14059 v -6.4218 l 2.1406,-2.14059 h 14.98418 v 2.14059 h -14.98418 v 2.1406 h 14.98418 v 2.1406 h -14.98418 v 2.1406 h 14.98418 v 2.14059 z"
         style="font-style:normal;font-variant:normal;font-weight:normal;font-stretch:normal;font-size:17.12478065px;font-family:Piranha;-inkscape-font-specification:'Piranha, Normal';font-variant-ligatures:normal;font-variant-caps:normal;font-variant-numeric:normal;font-feature-settings:normal;text-align:start;writing-mode:lr-tb;text-anchor:start;fill:#cd1e25;fill-opacity:1;stroke-width:0.26458332"
         id="path881"
         inkscape:connector-curvature="0" />
      <path
         d="m 335.59701,179.90149 v -6.4218 h -12.84358 v 6.4218 z m -14.98418,2.14059 V 171.3391 h 14.98418 l 2.1406,2.14059 v 6.4218 l -2.1406,2.14059 z"
         style="font-style:normal;font-variant:normal;font-weight:normal;font-stretch:normal;font-size:17.12478065px;font-family:Piranha;-inkscape-font-specification:'Piranha, Normal';font-variant-ligatures:normal;font-variant-caps:normal;font-variant-numeric:normal;font-feature-settings:normal;text-align:start;writing-mode:lr-tb;text-anchor:start;fill:#cd1e25;fill-opacity:1;stroke-width:0.26458332"
         id="path883"
         inkscape:connector-curvature="0" />
    </g>
    <path
       sodipodi:nodetypes="ccccccccccccccccccc"
       inkscape:connector-curvature="0"
       id="path977"
       d="m 219.8185,107.14712 8.38659,-23.831714 -8.69389,-25.574351 36.19058,25.551834 z m -7.28276,-23.763374 -9.00823,-17.943961 17.79607,17.823306 -17.67279,17.882899 z m -14.93608,-0.09086 -5.15434,-10.152851 9.49489,10.152851 -9.49489,9.617099 z m -15.55301,-4.467247 4.60235,4.467247 -4.60235,4.590811 z"
       style="opacity:1;fill:#fbc907;fill-opacity:1;stroke-width:0.99999994" />
    <path
       style="opacity:1;fill:#fbc907;fill-opacity:1;stroke-width:0.99999994"
       d="m 117.48151,115.17644 6.47736,-18.406338 -6.7147,-19.752261 27.95167,19.73487 z m -5.62481,-18.353555 -6.95747,-13.858957 13.74473,13.76577 -13.64952,13.811792 z m -11.53583,-0.07017 -3.980938,-7.841519 7.333348,7.841519 -7.333348,7.427735 z m -12.012315,-3.450265 3.554609,3.450262 -3.554609,3.545688 z"
       id="path979"
       inkscape:connector-curvature="0"
       sodipodi:nodetypes="ccccccccccccccccccc" />
    <path
       sodipodi:nodetypes="ccccccccccccccccccc"
       inkscape:connector-curvature="0"
       id="path981"
       d="M 38.804314,59.534733 43.08676,47.365554 38.647399,34.306531 57.127385,47.354056 Z m -3.718791,-12.134282 -4.599866,-9.16272 9.0872,9.101111 -9.024253,9.131537 z m -7.626806,-0.04639 -2.63196,-5.184347 4.848374,5.184347 -4.848374,4.910778 z m -7.94183,-2.28111 2.350096,2.281108 -2.350096,2.344199 z"
       style="opacity:1;fill:#fbc907;fill-opacity:1;stroke-width:0.99999994" />
    <path
       style="opacity:1;fill:#fbc907;fill-opacity:1;stroke-width:0.99999994"
       d="M 69.798362,83.72521 74.080808,71.556031 69.641447,58.497008 88.121433,71.544533 Z m -3.718791,-12.134282 -4.599866,-9.16272 9.0872,9.101111 -9.024253,9.131537 z m -7.626806,-0.04639 -2.63196,-5.184347 4.848374,5.184347 -4.848374,4.910778 z m -7.94183,-2.28111 2.350096,2.281108 -2.350096,2.344199 z"
       id="path983"
       inkscape:connector-curvature="0"
       sodipodi:nodetypes="ccccccccccccccccccc" />
    <path
       sodipodi:nodetypes="ccccccccccccccccccc"
       inkscape:connector-curvature="0"
       id="path985"
       d="M 84.91741,45.549614 89.199856,33.380435 84.760495,20.321412 103.24048,33.368937 Z m -3.718791,-12.134282 -4.599866,-9.16272 9.0872,9.101111 -9.024253,9.131537 z m -7.626806,-0.04639 -2.63196,-5.184347 4.848374,5.184347 -4.848374,4.910778 z m -7.94183,-2.28111 2.350096,2.281108 -2.350096,2.344199 z"
       style="opacity:1;fill:#fbc907;fill-opacity:1;stroke-width:0.99999994" />
    <path
       style="opacity:1;fill:#fbc907;fill-opacity:1;stroke-width:0.99999994"
       d="m 37.428011,178.89127 4.282446,-12.16918 -4.439361,-13.05902 18.479986,13.04752 z m -3.718791,-12.13428 -4.599866,-9.16272 9.0872,9.10111 -9.024253,9.13153 z m -7.626806,-0.0464 -2.63196,-5.18435 4.848374,5.18435 -4.848374,4.91077 z m -7.94183,-2.28111 2.350096,2.2811 -2.350096,2.3442 z"
       id="path1048"
       inkscape:connector-curvature="0"
       sodipodi:nodetypes="ccccccccccccccccccc" />
    <path
       style="opacity:1;fill:#fbc907;fill-opacity:1;stroke-width:3.77952743"
       d="M 857.12305,824.5957 904.09766,962.78125 862.84766,1080 h 13.30859 L 1052.668,962.6582 Z m -86.36328,41.59766 48.67187,96.95703 -48.00586,95.97261 95.49024,-96.62495 z m -59.88086,41.60742 27.84961,54.85742 -27.84961,51.9629 51.30273,-51.9629 z m -56.18555,30.7207 v 48.94141 l 24.86719,-24.80469 z"
       transform="matrix(0.26458333,0,0,0.26458333,0,11.249983)"
       id="path1052"
       inkscape:connector-curvature="0" />
    <path
       style="opacity:1;fill:#fbc907;fill-opacity:1;stroke-width:3.77952743"
       d="M 1092.0059,1000.3105 1119.0957,1080 h 85.7793 z m -60.4121,29.0977 25.3984,50.5918 h 25.1172 z m -41.88482,29.1035 10.90822,21.4883 h 9.1875 z"
       transform="matrix(0.26458333,0,0,0.26458333,0,11.249983)"
       id="path1054"
       inkscape:connector-curvature="0" />
    <path
       style="opacity:1;fill:#fbc907;fill-opacity:1;stroke-width:0.99999994"
       d="m 108.21953,277.70911 4.28245,-12.16918 -4.43936,-13.05902 18.47999,13.04752 z m -3.71879,-12.13428 -4.599861,-9.16272 9.087201,9.10111 -9.024261,9.13154 z m -7.626801,-0.0464 -2.63196,-5.18435 4.84837,5.18435 -4.84837,4.91078 z m -7.94183,-2.28111 2.35009,2.28111 -2.35009,2.34419 z"
       id="path1058"
       inkscape:connector-curvature="0"
       sodipodi:nodetypes="ccccccccccccccccccc" />
    <path
       style="opacity:1;fill:#fbc907;fill-opacity:1;stroke-width:3.77952743"
       d="m 525.56836,1003.168 16.7793,49.3574 -9.66797,27.4746 h 21.33789 l 41.39648,-27.5195 z m -30.84766,14.8574 17.38477,34.6308 L 498.42773,1080 h 3.38477 l 27.25391,-27.5762 z m -21.38672,14.8613 9.94727,19.5938 -9.94727,18.5605 18.32422,-18.5605 z m -20.07031,10.9727 v 17.4824 l 8.88281,-8.8613 z"
       transform="matrix(0.26458333,0,0,0.26458333,0,11.249983)"
       id="path1060"
       inkscape:connector-curvature="0" />
    <path
       style="opacity:1;fill:#fbc907;fill-opacity:1;stroke-width:0.99999994"
       d="m 154.33263,263.72399 4.28245,-12.16918 -4.43936,-13.05902 18.47998,13.04752 z m -3.71879,-12.13428 -4.59987,-9.16272 9.0872,9.10111 -9.02425,9.13154 z m -7.62681,-0.0464 -2.63196,-5.18435 4.84838,5.18435 -4.84838,4.91078 z m -7.94183,-2.28111 2.3501,2.28111 -2.3501,2.3442 z"
       id="path1062"
       inkscape:connector-curvature="0"
       sodipodi:nodetypes="ccccccccccccccccccc" />
  </g>
</svg>
