<?xml version="1.0" encoding="UTF-8" standalone="no"?>
<!-- Created with Inkscape (http://www.inkscape.org/) -->

<svg
   xmlns:dc="http://purl.org/dc/elements/1.1/"
   xmlns:cc="http://creativecommons.org/ns#"
   xmlns:rdf="http://www.w3.org/1999/02/22-rdf-syntax-ns#"
   xmlns:svg="http://www.w3.org/2000/svg"
   xmlns="http://www.w3.org/2000/svg"
   xmlns:sodipodi="http://sodipodi.sourceforge.net/DTD/sodipodi-0.dtd"
   xmlns:inkscape="http://www.inkscape.org/namespaces/inkscape"
   width="1920"
   height="1080"
   viewBox="0 0 507.99999 285.75001"
   version="1.1"
   id="svg989"
   inkscape:version="0.92.5 (2060ec1f9f, 2020-04-08)"
   sodipodi:docname="qirex.svg"
   inkscape:export-filename="/home/Aidan/Pictures/wipeout-backgrounds/qirex.png"
   inkscape:export-xdpi="96"
   inkscape:export-ydpi="96">
  <defs
     id="defs983" />
  <sodipodi:namedview
     id="base"
     pagecolor="#ffffff"
     bordercolor="#666666"
     borderopacity="1.0"
     inkscape:pageopacity="0.0"
     inkscape:pageshadow="2"
     inkscape:zoom="0.35"
     inkscape:cx="663.42752"
     inkscape:cy="524.17136"
     inkscape:document-units="mm"
     inkscape:current-layer="layer1"
     showgrid="false"
     units="px"
     inkscape:window-width="1920"
     inkscape:window-height="966"
     inkscape:window-x="0"
     inkscape:window-y="27"
     inkscape:window-maximized="1"
     inkscape:snap-page="true"
     inkscape:snap-nodes="false"
     inkscape:snap-bbox="true"
     inkscape:bbox-nodes="true"
     inkscape:snap-bbox-edge-midpoints="true" />
  <metadata
     id="metadata986">
    <rdf:RDF>
      <cc:Work
         rdf:about="">
        <dc:format>image/svg+xml</dc:format>
        <dc:type
           rdf:resource="http://purl.org/dc/dcmitype/StillImage" />
        <dc:title />
      </cc:Work>
    </rdf:RDF>
  </metadata>
  <g
     inkscape:label="Layer 1"
     inkscape:groupmode="layer"
     id="layer1"
     transform="translate(0,-11.249966)">
    <rect
       style="opacity:1;fill:#ffffff;fill-opacity:1;stroke:none;stroke-width:3.44831443;stroke-linecap:butt;stroke-linejoin:round;stroke-miterlimit:4;stroke-dasharray:none;stroke-opacity:1;paint-order:markers stroke fill"
       id="rect873"
       width="507.99997"
       height="285.75"
       x="-4.9760778e-09"
       y="11.249966" />
    <g
       id="g909"
       transform="matrix(1.0832252,0,0,1.0832252,0,33.120924)"
       style="stroke-width:0.92316908">
      <path
         d="m 92.962903,206.75867 c 14.313107,5.67406 29.247497,7.34402 44.801567,5.02101 16.25559,-2.42866 30.5433,-8.82261 42.89011,-19.14031 l -11.91305,-8.5397 c -9.77035,7.33686 -20.79517,11.92332 -33.06493,13.75694 -13.06579,1.95199 -25.66522,0.56802 -37.802321,-4.16457 C 85.735642,188.96019 75.57366,181.555 67.393425,171.46919 59.21105,161.3914 54.151251,149.86532 52.214501,136.90194 50.268932,123.89021 51.683473,111.31773 56.469517,99.192608 61.247835,87.065029 68.732262,76.914157 78.915957,68.736735 89.094623,60.560018 100.82572,55.480217 114.0965,53.495643 c 12.89977,-1.92976 25.42138,-0.444911 37.55366,4.452185 12.13628,4.893896 22.31818,12.442974 30.55044,22.653442 8.22432,10.208063 13.33752,21.95351 15.31971,35.23141 1.78118,11.91147 0.59824,23.43678 -3.53459,34.56572 l 11.78989,8.62709 c 6.20003,-13.91514 8.10753,-28.99168 5.67647,-45.23619 C 208.85815,97.900038 202.70498,83.860966 192.99822,71.684996 183.28425,59.508931 171.24967,50.531483 156.90079,44.750964 142.55036,38.970354 127.57465,37.244786 111.98166,39.576532 96.383084,41.906792 82.536337,47.926453 70.449971,57.622883 58.358591,67.324085 49.4847,79.38177 43.832236,93.795746 c -5.659693,14.418014 -7.312814,29.450964 -4.976294,45.101114 2.301173,15.39045 8.313699,29.1323 18.046796,41.21857 9.726665,12.09015 21.748204,20.97068 36.060165,26.64324"
         style="fill:#ba198f;fill-opacity:1;fill-rule:nonzero;stroke:none;stroke-width:0.03256735"
         id="path1600"
         inkscape:connector-curvature="0" />
      <path
         d="m 192.86637,201.26326 c -15.17114,13.53936 -32.56599,21.77001 -52.18775,24.70554 -18.03677,2.69561 -35.39748,0.73885 -52.092413,-5.87267 C 71.893393,213.48538 57.927211,203.26541 46.693208,189.43129 35.461422,175.59958 28.5108,159.74684 25.840677,141.88161 23.115267,123.64469 25.05676,106.08376 31.669769,89.208455 38.279953,72.331635 48.594061,58.239318 62.603369,46.930121 76.616731,35.620833 92.667381,28.614445 110.75025,25.911677 c 17.76032,-2.65588 35.01613,-0.567239 51.76747,6.257996 16.74817,6.822869 30.78086,17.341674 42.09248,31.54988 11.3132,14.209875 18.32278,30.330351 21.01678,48.367177 2.8855,19.31829 0.25502,37.76822 -7.88822,55.35687 l 13.83331,10.12079 73.99419,54.54732 h -70.15933 z m -26.48276,31.57934 c 9.02514,-3.56089 18.03443,-8.34278 27.02221,-14.42756 l 19.8164,14.42756 z m 68.89701,-69.67719 c 5.41347,-18.28072 6.84034,-35.99331 4.27341,-53.14032 C 236.46993,89.384025 228.49976,71.061291 215.65408,55.045586 202.80358,39.034656 186.88483,27.183622 167.90501,19.49719 148.92759,11.809857 129.20573,9.4979492 108.75375,12.555863 88.138916,15.63688 69.84422,23.592632 53.872647,36.411317 37.903234,49.228516 26.140421,65.161503 18.588925,84.213644 11.030702,103.2642 8.8108084,123.17913 11.917011,143.96153 c 3.034771,20.30899 10.953078,38.30529 23.75671,53.98643 12.803934,15.68281 28.725941,27.26532 47.765153,34.7429 0.134221,0.0541 0.270113,0.0993 0.404373,0.15178 H 0 v 10.76233 h 344.631 z m -21.02241,19.67739 -4.93921,-3.59257 -12.12119,-8.67167 c 0.0224,-0.0358 0.0405,-0.0651 0.0619,-0.0953 l -11.21151,-8.15202 c -0.0588,0.093 -0.12228,0.18354 -0.17948,0.27648 l -11.20278,-7.98833 -8.50399,10.56557 -8.20445,-6.24051 -0.0547,0.12633 -4.71834,3.57113 -10.36542,-1.43481 -8.89565,-6.43355 -6.49796,-5.90298 -13.97228,-10.50441 -4.87565,-1.63263 -26.80926,-20.15643 -1.256031,-2.72423 0.578362,-8.21237 7.966071,0.9041 17.548218,13.19367 4.87087,6.71331 34.20022,24.18916 1.34503,-1.78844 -6.82368,-5.12907 -3.97789,-5.53343 1.20679,-2.14665 -0.0651,-0.0493 0.21619,-0.21934 0.14931,-0.26773 0.0651,0.0509 1.72639,-1.75656 6.42007,2.28409 6.82528,5.13223 1.34264,-1.78834 -32.7368,-26.13875 -7.80168,-2.81478 -17.545811,-13.191301 -3.082518,-7.403697 7.727769,-2.837837 2.96813,0.452853 26.80692,20.154852 2.92363,4.23131 13.9715,10.50441 7.47437,4.60243 8.65173,6.76089 4.25754,9.55899 -1.74226,4.54195 8.53258,6.48771 c 1.39507,-2.43028 2.65034,-4.9671 3.72685,-7.63332 3.94453,-9.78543 5.14416,-19.8497 3.59814,-30.19371 -1.57781,-10.55208 -5.69077,-19.968067 -12.3349,-28.252845 -6.64969,-8.284662 -14.86369,-14.420323 -24.6563,-18.405358 -9.79259,-3.984328 -19.92602,-5.19272 -30.39552,-3.626819 -10.74038,1.60324 -20.209655,5.730571 -28.40935,12.375477 -8.203852,6.647278 -14.244344,14.886668 -18.129128,24.719055 -3.887634,9.8323 -5.031515,20.0762 -3.437657,30.73236 1.560414,10.44799 5.654695,19.75761 12.287319,27.93742 6.628347,8.17745 14.899521,14.21536 24.811316,18.10039 9.90939,3.88175 20.04757,5.04963 30.41936,3.49962 10.41863,-1.55874 19.74329,-5.64786 27.97715,-12.27219 2.09898,-1.68825 4.05654,-3.48372 5.87668,-5.37932 l 80.49777,57.74026 h 23.99053 L 214.25837,182.8428"
         style="fill:#632170;fill-opacity:1;fill-rule:nonzero;stroke:none;stroke-width:0.03256735"
         id="path1604"
         inkscape:connector-curvature="0"
         sodipodi:nodetypes="cccccccccccccccccccccccccccccccccccccccccccccccccccccccccccccccccccccccccccccccccccccccccccccccccccc" />
    </g>
    <rect
       style="opacity:1;fill:#ba198f;fill-opacity:1;stroke:none;stroke-width:3.44831443;stroke-linecap:butt;stroke-linejoin:round;stroke-miterlimit:4;stroke-dasharray:none;stroke-opacity:1;paint-order:markers stroke fill"
       id="rect846"
       width="134.55952"
       height="285.75"
       x="373.44046"
       y="11.249966" />
    <text
       xml:space="preserve"
       style="font-style:normal;font-variant:normal;font-weight:normal;font-stretch:normal;font-size:29.12571716px;line-height:1.25;font-family:Qirex;-inkscape-font-specification:'Qirex, Normal';font-variant-ligatures:normal;font-variant-caps:normal;font-variant-numeric:normal;font-feature-settings:normal;text-align:start;letter-spacing:0px;word-spacing:0px;writing-mode:lr-tb;text-anchor:start;fill:#ffffff;fill-opacity:1;stroke:none;stroke-width:0.26458335"
       x="27.610138"
       y="-470.44977"
       id="text840"
       transform="rotate(90)"><tspan
         sodipodi:role="line"
         x="27.610138"
         y="-470.44977"
         style="font-style:normal;font-variant:normal;font-weight:normal;font-stretch:normal;font-size:29.12571716px;font-family:Qirex;-inkscape-font-specification:'Qirex, Normal';font-variant-ligatures:normal;font-variant-caps:normal;font-variant-numeric:normal;font-feature-settings:normal;text-align:start;writing-mode:lr-tb;text-anchor:start;fill:#ffffff;stroke-width:0.26458335"
         id="tspan842">High Speed Revolution</tspan></text>
    <g
       transform="matrix(0.76180553,0.56614186,-0.56614186,0.76180553,279.03327,-56.712371)"
       id="g1698"
       style="stroke-width:1.05358684">
      <path
         d="m 159.05695,231.83973 c -0.9919,0 -1.76735,-0.43529 -2.17025,-0.96283 -0.49763,-0.65289 -0.80825,-1.3976 -0.80825,-5.43056 0,-0.017 0.001,-0.0311 0.001,-0.0477 0,-0.0163 -0.001,-0.031 -0.001,-0.0479 0,-4.03091 0.31062,-4.77767 0.80825,-5.42851 0.4029,-0.52751 1.17835,-0.96312 2.17025,-0.96312 h 4.21626 c 0.99272,0 1.76869,0.43561 2.17177,0.96312 0.49721,0.65084 0.80684,1.3976 0.80684,5.42851 0,0.0169 0,0.0317 0,0.0479 0,0.0165 0,0.0307 0,0.0477 0,4.03296 -0.30963,4.77767 -0.80684,5.43056 -0.40308,0.52754 -1.17905,0.96283 -2.17177,0.96283 z m 11.83944,0.20768 c 0.767,-1.80054 0.78919,-3.86704 0.78821,-6.04724 0,-0.19788 0,-0.40005 0,-0.60153 0,-0.20171 0,-0.40142 0,-0.60176 0.003,-3.10872 -0.0393,-5.99874 -2.23517,-8.19715 -0.0596,-0.0576 -0.11963,-0.10735 -0.1779,-0.16369 -0.13628,-0.12911 -0.27175,-0.26003 -0.41025,-0.37676 -0.0993,-0.0855 -0.20285,-0.16094 -0.30332,-0.2388 -0.10128,-0.078 -0.20048,-0.16125 -0.30437,-0.2347 -0.13671,-0.0966 -0.27644,-0.18341 -0.41798,-0.26981 -0.0722,-0.0463 -0.14167,-0.0921 -0.2147,-0.13271 -0.16316,-0.0945 -0.33348,-0.17985 -0.50422,-0.26032 -0.0536,-0.0265 -0.10626,-0.0547 -0.16013,-0.078 -0.18933,-0.0846 -0.38407,-0.16079 -0.58402,-0.22958 -0.0394,-0.016 -0.0773,-0.0294 -0.1167,-0.0427 -0.2147,-0.0717 -0.43533,-0.13447 -0.66273,-0.18767 -0.0262,-0.007 -0.0539,-0.0131 -0.0795,-0.019 -0.24116,-0.0551 -0.48771,-0.10199 -0.74471,-0.13765 -0.0137,-0.003 -0.0288,-0.004 -0.043,-0.006 -0.26786,-0.0371 -0.54444,-0.0617 -0.83065,-0.078 -9.8e-4,0 -9.8e-4,-7e-4 -0.002,-7e-4 v -0.0258 h -0.61969 -4.21626 -0.61983 v 0.0258 c 0,0 -8.5e-4,7e-4 -0.002,7e-4 -0.28579,0.0163 -0.56265,0.0409 -0.83079,0.078 -0.0132,0.002 -0.0277,0.003 -0.0429,0.006 -0.25562,0.0357 -0.50299,0.0826 -0.74401,0.13765 -0.0248,0.006 -0.0522,0.012 -0.0798,0.019 -0.22642,0.0532 -0.44757,0.11602 -0.66203,0.18767 -0.039,0.0134 -0.0784,0.0267 -0.11641,0.0427 -0.19982,0.0688 -0.39455,0.14499 -0.58445,0.22958 -0.0544,0.0233 -0.10707,0.0515 -0.16013,0.078 -0.17032,0.0805 -0.33969,0.16577 -0.50436,0.26032 -0.0729,0.0406 -0.1433,0.0864 -0.21357,0.13271 -0.14196,0.0864 -0.28265,0.17322 -0.41949,0.26981 -0.10377,0.0735 -0.20285,0.1567 -0.30303,0.2347 -0.10129,0.0779 -0.2056,0.15335 -0.30372,0.2388 -0.13946,0.11673 -0.27533,0.24765 -0.41107,0.37676 -0.059,0.0563 -0.11906,0.10612 -0.17735,0.16369 -2.19646,2.19841 -2.23849,5.08843 -2.23573,8.19715 0,0.20034 2.7e-4,0.40005 2.7e-4,0.60176 0,0.20148 -2.7e-4,0.40365 -2.7e-4,0.60153 -0.003,3.11121 0.0393,6.00039 2.23573,8.19852 0.18893,0.18834 0.38075,0.36449 0.57767,0.5323 0.004,0.004 0.006,0.008 0.0108,0.009 0.0981,0.0851 0.20243,0.15946 0.30372,0.23813 0.10018,0.0805 0.19926,0.16125 0.30303,0.2347 0.13684,0.097 0.27753,0.18383 0.41949,0.27051 0.0703,0.0441 0.14068,0.09 0.21357,0.13268 0.16467,0.0939 0.33404,0.17889 0.50436,0.26169 0.0531,0.0251 0.1057,0.0515 0.16013,0.0762 0.1899,0.0847 0.38463,0.16093 0.58445,0.22997 0.038,0.0145 0.0774,0.0301 0.11641,0.0427 0.21446,0.0706 0.43561,0.13409 0.66203,0.18743 0.0276,0.007 0.055,0.0133 0.0798,0.0193 0.24102,0.0551 0.48839,0.10103 0.74401,0.13726 0.0151,0.002 0.0296,0.004 0.0429,0.005 0.26814,0.036 0.545,0.0634 0.83079,0.0786 0.001,0 0.002,0 0.002,0 v 0.0269 h 0.61983 4.21626 0.59683 v 0.0599 h 10.27381 v -4.69375 h -3.24746"
         style="fill:#ba198f;fill-opacity:1;fill-rule:nonzero;stroke:none;stroke-width:0.0371682"
         id="path1682"
         inkscape:connector-curvature="0" />
      <path
         d="M 176.0753,236.74116 V 214.6446 h 5.43197 v 22.09656 h -5.43197"
         style="fill:#ba198f;fill-opacity:1;fill-rule:nonzero;stroke:none;stroke-width:0.0371682"
         id="path1684"
         inkscape:connector-curvature="0" />
      <path
         d="M 202.05647,236.74116 V 214.6446 h 16.79434 v 4.84117 h -11.36368 v 3.69175 h 11.14884 v 4.84258 h -11.14884 v 3.88056 h 11.36368 v 4.8405 h -16.79434"
         style="fill:#ba198f;fill-opacity:1;fill-rule:nonzero;stroke:none;stroke-width:0.0371682"
         id="path1686"
         inkscape:connector-curvature="0" />
      <path
         d="m 252.23982,228.14756 v -4.78053 h 10.17623 v 4.78053 h -10.17623"
         style="fill:#ba198f;fill-opacity:1;fill-rule:nonzero;stroke:none;stroke-width:0.0371682"
         id="path1688"
         inkscape:connector-curvature="0" />
      <path
         d="m 247.35138,220.07667 h 4.18324 v -5.4332 h -7.10283 l -4.1843,8.47231 h -1.87113 v -8.5139 h -5.43066 v 8.5139 h -1.22097 l -4.40549,-8.47231 h -7.10212 v 5.4332 h 4.18359 l 3.1997,5.33686 -3.58811,5.89594 h -3.79518 v 5.43169 h 6.69996 l 4.96676,-8.84591 h 1.06186 v 8.80318 h 5.43066 v -8.80318 h 1.81116 l 4.64749,8.84591 h 6.69961 v -5.43169 h -3.79554 l -3.58704,-5.89594 3.19934,-5.33686"
         style="fill:#ba198f;fill-opacity:1;fill-rule:nonzero;stroke:none;stroke-width:0.0371682"
         id="path1690"
         inkscape:connector-curvature="0" />
      <path
         d="m 297.45076,220.72547 c -0.49635,-0.7469 -1.24142,-1.24217 -2.60561,-1.24217 h -5.70124 v 12.4157 h 5.70124 c 1.36419,0 2.10926,-0.49707 2.60561,-1.24259 0.43427,-0.61983 0.59197,-1.20989 0.59197,-4.96602 0,-3.7236 -0.1577,-4.34481 -0.59197,-4.96492 z m 3.72569,13.84113 c -1.51977,1.52163 -3.66289,2.17456 -5.95983,2.17456 h -11.50373 v -22.09864 h 11.50373 c 2.29694,0 4.44006,0.65222 5.95983,2.17205 2.57563,2.57666 2.29694,5.40068 2.29694,8.87582 0,3.47733 0.27869,6.30178 -2.29694,8.87621"
         style="fill:#ba198f;fill-opacity:1;fill-rule:nonzero;stroke:none;stroke-width:0.0371682"
         id="path1692"
         inkscape:connector-curvature="0" />
      <path
         d="m 189.21077,228.51646 v 8.2247 h -5.43016 V 214.6446 h 16.32041 v 4.8719 h -10.89025 v 4.46994 4.53002"
         style="fill:#ba198f;fill-opacity:1;fill-rule:nonzero;stroke:none;stroke-width:0.0371682"
         id="path1694"
         inkscape:connector-curvature="0" />
      <path
         d="m 270.56557,228.51646 v 8.2247 h -5.43066 V 214.6446 h 16.31844 v 4.8719 h -10.88778 v 4.46994 4.53002"
         style="fill:#ba198f;fill-opacity:1;fill-rule:nonzero;stroke:none;stroke-width:0.0371682"
         id="path1696"
         inkscape:connector-curvature="0" />
      <path
         style="fill:#ffffff;fill-opacity:1;fill-rule:nonzero;stroke:none;stroke-width:0.13333334"
         d="M 1412.2168 968.2207 L 1411.4277 969.2832 L 1411.4277 1001.9473 L 1417.4961 993.78125 L 1433.9121 1005.9805 C 1437.84 1008.8995 1438.9249 1011.9183 1438.7559 1015.1309 C 1438.6794 1017.8455 1437.8055 1019.9721 1429.8379 1030.6934 C 1421.8007 1041.5083 1420.0825 1042.8692 1417.5059 1043.7246 C 1415.5978 1044.4088 1413.6169 1044.592 1411.4277 1043.9043 L 1411.4277 1062.707 C 1414.2016 1063.2638 1417.0299 1063.3749 1419.8672 1062.9551 C 1432.7917 1061.0538 1438.032 1052.3266 1445.4727 1042.3145 C 1452.9086 1032.3086 1459.7541 1024.7738 1457.8516 1011.8438 C 1456.7278 1004.2158 1451.9533 997.75081 1445.3398 992.83594 L 1412.2168 968.2207 z "
         id="path868"
         transform="matrix(0.22374186,-0.16627555,0.16627555,0.22374186,-193.25083,232.82808)" />
    </g>
  </g>
</svg>
