<?xml version="1.0" encoding="UTF-8" standalone="no"?>
<!-- Created with Inkscape (http://www.inkscape.org/) -->

<svg
   xmlns:dc="http://purl.org/dc/elements/1.1/"
   xmlns:cc="http://creativecommons.org/ns#"
   xmlns:rdf="http://www.w3.org/1999/02/22-rdf-syntax-ns#"
   xmlns:svg="http://www.w3.org/2000/svg"
   xmlns="http://www.w3.org/2000/svg"
   xmlns:sodipodi="http://sodipodi.sourceforge.net/DTD/sodipodi-0.dtd"
   xmlns:inkscape="http://www.inkscape.org/namespaces/inkscape"
   width="500.00003"
   height="114.23745"
   viewBox="0 0 132.29167 30.225326"
   version="1.1"
   id="svg8"
   inkscape:version="0.92.5 (2060ec1f9f, 2020-04-08)"
   sodipodi:docname="logo-fx300-text.svg"
   inkscape:export-filename="/home/Aidan/Pictures/wipeout-backgrounds/tigron.png"
   inkscape:export-xdpi="96"
   inkscape:export-ydpi="96">
  <defs
     id="defs2" />
  <sodipodi:namedview
     id="base"
     pagecolor="#ffffff"
     bordercolor="#666666"
     borderopacity="1.0"
     inkscape:pageopacity="0.0"
     inkscape:pageshadow="2"
     inkscape:zoom="0.49497475"
     inkscape:cx="173.19774"
     inkscape:cy="-32.710864"
     inkscape:document-units="mm"
     inkscape:current-layer="layer1"
     showgrid="false"
     units="px"
     inkscape:window-width="1920"
     inkscape:window-height="993"
     inkscape:window-x="1920"
     inkscape:window-y="0"
     inkscape:window-maximized="1"
     inkscape:snap-nodes="false"
     inkscape:snap-bbox="true"
     inkscape:bbox-nodes="false"
     inkscape:snap-page="true"
     inkscape:snap-bbox-midpoints="true"
     inkscape:snap-others="false"
     inkscape:snap-bbox-edge-midpoints="false"
     fit-margin-top="0"
     fit-margin-left="0"
     fit-margin-right="0"
     fit-margin-bottom="0" />
  <metadata
     id="metadata5">
    <rdf:RDF>
      <cc:Work
         rdf:about="">
        <dc:format>image/svg+xml</dc:format>
        <dc:type
           rdf:resource="http://purl.org/dc/dcmitype/StillImage" />
        <dc:title></dc:title>
      </cc:Work>
    </rdf:RDF>
  </metadata>
  <g
     inkscape:label="Layer 1"
     inkscape:groupmode="layer"
     id="layer1"
     transform="translate(-198.93654,-168.50104)">
    <g
       id="g4384"
       transform="matrix(1.2012653,0,0,1.2012653,-40.039011,-39.996712)"
       style="stroke-width:0.83245564">
      <path
         inkscape:connector-curvature="0"
         id="path1091"
         d="m 207.43096,182.61353 -8.49443,-0.0291 1.1e-4,-2.94097 18.56145,0.0688 v 2.8722 l -7.31979,0.0291 -2.1e-4,9.38233 h -2.74713 z"
         style="fill:#8c0101;stroke-width:0.83245564" />
      <path
         inkscape:connector-curvature="0"
         id="path1089"
         d="m 219.98166,179.70873 h 2.745 v 12.28714 h -2.745 z"
         style="fill:#8c0101;stroke-width:0.83245564" />
      <path
         inkscape:connector-curvature="0"
         id="path1087"
         d="m 225.2104,186.39562 c 0,-3.3025 2.28005,-6.68704 6.73618,-6.68704 l 12.74007,1.5e-4 v 2.8666 l -12.74464,0.0745 c -3.30965,0.0194 -3.8573,3.17508 -3.8573,3.72806 v 2.74212 h 13.85678 v -3.13696 h 2.74516 v 6.01275 l -19.47642,1e-4 z"
         style="fill:#8c0101;stroke-width:0.83245564" />
      <path
         inkscape:connector-curvature="0"
         id="path1085"
         d="m 248.60808,191.9958 3.00643,-3.20235 c -2.89753,0 -4.44598,-2.67007 -4.46141,-3.59479 v -5.48993 h 9.2239 9.22391 v 12.28714 h -2.745 l -0.0793,-9.41149 h -12.70725 c 0,1.27453 -0.49123,3.44085 3.74561,3.46419 h 5.79509 c 2.10915,0 2.13893,2.74488 8e-5,2.74488 h -4.46322 l -3.07882,3.20242 z"
         style="fill:#8c0101;stroke-width:0.83245564" />
      <path
         inkscape:connector-curvature="0"
         id="path1083"
         d="m 272.99082,179.70855 c -2.14916,0 -4.90638,2.50744 -4.90638,4.50811 v 7.77928 l 13.52433,-2.6e-4 c 2.11201,0 4.90638,-2.38507 4.90638,-4.58674 v -7.70014 z m 1.68064,2.87597 h 8.0277 v 3.37048 c 0,1.07612 -0.25052,3.16217 -2.98115,3.16217 h -7.6861 v -4.00645 c 0,-1.06188 1.43638,-2.5262 2.63955,-2.5262 z"
         style="fill:#8c0101;stroke-width:0.83245564" />
      <path
         inkscape:connector-curvature="0"
         id="path1079"
         d="m 288.99877,185.83866 v -6.15721 l 3.7906,0.0271 c 4.7062,0.1057 8.33587,2.66231 11.89496,6.14372 v -6.14372 l 1.89551,1.5e-4 h 1.89535 v 6.14357 6.14357 h -1.87334 -1.91752 c 0.25352,-0.94618 -7.40591,-8.235 -11.89496,-8.235 l 1.2e-4,8.235 h -3.79072 z"
         style="fill:#8c0101;stroke-width:0.83245564" />
      <path
         inkscape:connector-curvature="0"
         id="path1077"
         d="m 273.70521,178.30502 4.64304,-4.7399 4.63767,4.7399 z"
         style="fill:#8c0101;stroke-width:0.83245564" />
      <path
         inkscape:connector-curvature="0"
         style="fill:#000000;fill-opacity:1;stroke-width:0.83245569"
         d="m 199.52469,196.79266 v -1.9095 h 2.10703 2.10703 v 0.46092 0.46091 h -1.51443 -1.51443 v 0.32922 0.32923 h 1.38274 1.38274 v 0.32922 0.32923 h -1.38274 -1.38274 v 0.32922 0.32922 h 1.51443 1.51443 v 0.46092 0.46091 h -2.10703 -2.10703 z"
         id="path1374" />
      <path
         inkscape:connector-curvature="0"
         style="fill:#000000;fill-opacity:1;stroke-width:0.83245569"
         d="m 210.05986,196.79266 v -1.9095 h 0.90163 0.90166 l 1.04078,1.31678 c 0.57242,0.72422 1.08521,1.31682 1.13952,1.31689 0.0543,7e-5 0.0988,-0.59248 0.0988,-1.31677 v -1.3169 h 0.52676 0.52675 v 1.9095 1.9095 l -0.8889,-0.006 -0.88889,-0.006 -1.05352,-1.33828 -1.05352,-1.33829 -0.0375,1.34457 -0.0375,1.34457 h -0.58801 -0.58798 z"
         id="path1376" />
      <path
         inkscape:connector-curvature="0"
         style="fill:#000000;fill-opacity:1;stroke-width:0.83245569"
         d="m 222.96543,197.25358 v -1.44859 h -0.79013 -0.79016 v -0.46091 -0.46092 h 2.23873 2.23873 v 0.46092 0.46091 h -0.85599 -0.85597 v 1.44859 1.44858 h -0.59261 -0.5926 z"
         id="path1378" />
      <path
         id="path1380"
         d="m 231.92032,196.79266 v -1.9095 h 2.10703 2.10703 v 0.46092 0.46091 h -1.51443 -1.51443 v 0.32922 0.32923 h 1.38274 1.38274 v 0.32922 0.32923 h -1.38274 -1.38274 v 0.32922 0.32922 h 1.51443 1.51443 v 0.46092 0.46091 h -2.10703 -2.10703 z"
         style="fill:#000000;fill-opacity:1;stroke-width:0.83245569"
         inkscape:connector-curvature="0" />
      <path
         inkscape:connector-curvature="0"
         style="fill:#000000;fill-opacity:1;stroke-width:0.83245564"
         d="m 242.45552,194.86509 v 1.9185 1.91859 h 0.59253 0.59262 v -0.52679 -0.52679 l 2.06727,1e-4 c 0.47004,1e-5 0.40496,0.6646 0.40496,1.05348 h 1.05358 v -1.05348 c -0.002,-0.40079 -0.34672,-0.49691 -0.53823,-0.51306 0.67132,-0.15113 0.91146,-2.27055 -0.52728,-2.27055 z m 1.18515,0.92956 h 2.10088 c 0.34553,0 0.34553,0.94239 0,0.94239 h -2.10088 v -0.47109 z"
         id="path1382" />
      <path
         id="path1384"
         d="m 253.51737,194.86419 v 1.9185 1.91859 h 0.59253 0.59262 v -0.52679 -0.52679 l 2.46027,1e-4 c 0.75759,-0.0334 0.88627,-0.72762 0.89835,-1.36104 0,-0.5938 -0.077,-1.42257 -0.89835,-1.42257 z m 1.18515,0.92956 h 2.10088 c 0.34552,0 0.34552,0.94239 0,0.94239 h -2.10088 v -0.47109 z"
         style="opacity:1;fill:#000000;fill-opacity:1;stroke-width:0.83245569"
         inkscape:connector-curvature="0"
         sodipodi:nodetypes="cccccccccsccssccc" />
      <path
         id="path1386"
         d="m 264.31597,194.86504 v 1.91849 1.91859 h 0.59252 0.59263 v -0.52678 -0.52679 l 2.06727,1e-4 c 0.47004,1e-5 0.40497,0.66459 0.40497,1.05347 h 1.05357 v -1.05347 c -0.002,-0.4008 -0.34673,-0.49691 -0.53823,-0.51307 0.67133,-0.15112 0.91147,-2.27054 -0.52729,-2.27054 z m 1.18515,0.92956 h 2.10089 c 0.34552,0 0.34552,0.94239 0,0.94239 h -2.10089 v -0.4711 z"
         style="fill:#000000;fill-opacity:1;stroke-width:0.83245569"
         inkscape:connector-curvature="0" />
      <path
         inkscape:connector-curvature="0"
         style="fill:#000000;fill-opacity:1;stroke-width:0.83245569"
         d="m 275.50958,196.79266 v -1.9095 h 0.52675 0.52677 v 1.9095 1.9095 h -0.52677 -0.52675 z"
         id="path1388" />
      <path
         inkscape:connector-curvature="0"
         style="fill:#000000;fill-opacity:1;stroke-width:0.83245569"
         d="m 294.07781,196.79266 v -1.9095 h 2.10702 2.10703 v 0.46091 0.46092 h -1.51443 -1.51443 v 0.32922 0.32923 h 1.38276 1.38274 v 0.32922 0.32922 h -1.38274 -1.38276 v 0.32923 0.32922 h 1.51443 1.51443 v 0.46091 0.46092 h -2.10703 -2.10702 z"
         id="path1390" />
      <path
         style="fill:#000000;fill-opacity:1;stroke-width:0.83245569"
         d="m 283.89657,194.90746 c -0.49394,0 -0.88033,0.35346 -0.88033,0.7535 0,0.18057 -0.027,0.63681 0,0.76996 0.19229,0.94838 0.59416,0.78676 1.88252,0.77849 v 4.9e-4 c 1.68681,0 1.64686,-0.0825 1.64686,0.43708 0,0.34968 -0.22217,0.2974 -0.47062,0.2974 -0.1573,0 -1.09847,0.002 -1.2191,0.003 -0.83179,0 -0.73357,-0.11579 -0.73357,-0.46639 h -1.11677 c -0.005,0.73138 -0.0287,1.24537 1.10451,1.24537 h 2.4572 c 0.49395,0 0.88033,-0.35356 0.88033,-0.7536 0,-0.18057 0.027,-0.63671 0,-0.76986 0,-0.86817 -0.58144,-0.77849 -1.88251,-0.77849 v -4.9e-4 c -1.43606,0 -1.64687,0.0824 -1.64687,-0.43718 0,-0.34968 0.22216,-0.2973 0.47061,-0.2973 0.15731,0 1.09848,-0.002 1.21908,-0.003 0.85809,-0.007 0.73361,0.11588 0.73361,0.46648 h 1.11676 c 0.005,-0.73138 0.0287,-1.24537 -1.1045,-1.24537 z"
         id="path1392"
         inkscape:connector-curvature="0"
         sodipodi:nodetypes="sscccsscccssscccsscccss" />
      <path
         sodipodi:nodetypes="sscccsscccssscccsscccss"
         inkscape:connector-curvature="0"
         id="path1394"
         d="m 305.50044,194.88924 c -0.49394,0 -0.88034,0.35346 -0.88034,0.7535 0,0.18057 -0.027,0.63681 0,0.76996 0.1923,0.94838 0.59417,0.78676 1.88253,0.77849 v 4.9e-4 c 1.6868,0 1.64685,-0.0825 1.64685,0.43708 0,0.34968 -0.22216,0.2974 -0.47061,0.2974 -0.15731,0 -1.09847,0.002 -1.2191,0.003 -0.8318,0 -0.73357,-0.11579 -0.73357,-0.46639 h -1.11678 c -0.005,0.73138 -0.0287,1.24537 1.10452,1.24537 h 2.45719 c 0.49396,0 0.88034,-0.35356 0.88034,-0.7536 0,-0.18057 0.027,-0.63671 0,-0.76986 0,-0.86817 -0.58145,-0.77849 -1.88251,-0.77849 v -4.9e-4 c -1.43606,0 -1.64687,0.0824 -1.64687,-0.43718 0,-0.34968 0.22216,-0.2973 0.47061,-0.2973 0.15731,0 1.09847,-0.002 1.21908,-0.003 0.85809,-0.007 0.73361,0.11588 0.73361,0.46648 h 1.11676 c 0.005,-0.73138 0.0287,-1.24537 -1.1045,-1.24537 z"
         style="fill:#000000;fill-opacity:1;stroke-width:0.83245569" />
    </g>
  </g>
</svg>
