<?xml version="1.0" encoding="UTF-8" standalone="no"?>
<!-- Created with Inkscape (http://www.inkscape.org/) -->

<svg
   xmlns:dc="http://purl.org/dc/elements/1.1/"
   xmlns:cc="http://creativecommons.org/ns#"
   xmlns:rdf="http://www.w3.org/1999/02/22-rdf-syntax-ns#"
   xmlns:svg="http://www.w3.org/2000/svg"
   xmlns="http://www.w3.org/2000/svg"
   xmlns:sodipodi="http://sodipodi.sourceforge.net/DTD/sodipodi-0.dtd"
   xmlns:inkscape="http://www.inkscape.org/namespaces/inkscape"
   width="500"
   height="563.56757"
   viewBox="0 0 132.29167 149.11059"
   version="1.1"
   id="svg8"
   inkscape:version="0.92.5 (2060ec1f9f, 2020-04-08)"
   sodipodi:docname="logo-fx300.svg"
   inkscape:export-filename="/home/Aidan/Pictures/wipeout-backgrounds/tigron.png"
   inkscape:export-xdpi="96"
   inkscape:export-ydpi="96">
  <defs
     id="defs2" />
  <sodipodi:namedview
     id="base"
     pagecolor="#ffffff"
     bordercolor="#666666"
     borderopacity="1.0"
     inkscape:pageopacity="0.0"
     inkscape:pageshadow="2"
     inkscape:zoom="0.175"
     inkscape:cx="-667.92656"
     inkscape:cy="689.98445"
     inkscape:document-units="mm"
     inkscape:current-layer="layer1"
     showgrid="false"
     units="px"
     inkscape:window-width="1920"
     inkscape:window-height="993"
     inkscape:window-x="1920"
     inkscape:window-y="0"
     inkscape:window-maximized="1"
     inkscape:snap-nodes="false"
     inkscape:snap-bbox="true"
     inkscape:bbox-nodes="false"
     inkscape:snap-page="true"
     inkscape:snap-bbox-midpoints="true"
     inkscape:snap-others="false"
     inkscape:snap-bbox-edge-midpoints="false"
     fit-margin-top="0"
     fit-margin-left="0"
     fit-margin-right="0"
     fit-margin-bottom="0" />
  <metadata
     id="metadata5">
    <rdf:RDF>
      <cc:Work
         rdf:about="">
        <dc:format>image/svg+xml</dc:format>
        <dc:type
           rdf:resource="http://purl.org/dc/dcmitype/StillImage" />
        <dc:title></dc:title>
      </cc:Work>
    </rdf:RDF>
  </metadata>
  <g
     inkscape:label="Layer 1"
     inkscape:groupmode="layer"
     id="layer1"
     transform="translate(-149.04368,-51.883672)">
    <g
       style="stroke-width:0.6955725"
       transform="matrix(1.4376648,0,0,1.4376648,-150.33068,-68.752809)"
       id="g938">
      <g
         id="g912"
         transform="matrix(0.41280194,0,0,0.41280194,-91.192074,206.05622)"
         style="stroke-width:1.68500292">
        <g
           id="g902"
           style="stroke-width:1.68500292">
          <path
             style="fill:#8c0101;stroke-width:1.68500292"
             d="m 742.5505,-77.254926 -17.19387,-0.059 2.1e-4,-5.95291 37.5709,0.1392 v 5.81371 l -14.81624,0.059 -4.3e-4,18.99111 h -5.56057 z"
             id="path888"
             inkscape:connector-curvature="0" />
          <path
             style="fill:#8c0101;stroke-width:1.68500292"
             d="m 767.95482,-83.134626 h 5.55625 v 24.87083 h -5.55625 z"
             id="path890"
             inkscape:connector-curvature="0" />
          <path
             style="fill:#8c0101;stroke-width:1.68500292"
             d="m 778.5385,-69.599456 c 0,-6.68471 4.61513,-13.53547 13.63495,-13.53547 l 25.78762,3e-4 v 5.80239 l -25.79687,0.1508 c -6.69919,0.03916 -7.8077,6.42679 -7.8077,7.5461 v 5.55041 h 28.048 v -6.34963 h 5.55657 v 12.17063 l -39.42292,2e-4 z"
             id="path892"
             inkscape:connector-curvature="0" />
          <path
             style="fill:#8c0101;stroke-width:1.68500292"
             d="m 825.89857,-58.263926 6.08542,-6.482 c -5.86498,0 -8.99926,-5.40459 -9.03049,-7.27633 v -11.11237 h 18.67043 18.67043 v 24.87083 h -5.55625 l -0.1606,-19.05013 h -25.72118 c 0,2.57982 -0.99432,6.96475 7.58161,7.012 H 848.168 c 4.2692,0 4.32948,5.556 1.6e-4,5.556 h -9.03417 l -6.23195,6.48213 z"
             id="path894"
             inkscape:connector-curvature="0" />
          <path
             style="fill:#8c0101;stroke-width:6.36851454"
             d="m 3308.041,-356.73047 c -16.4416,0 -37.5351,19.18259 -37.5351,34.48828 v 59.51367 l 103.4648,-0.002 c 16.1575,0 37.5352,-18.24642 37.5352,-35.08984 v -58.90821 z m 12.8574,22.00195 h 61.4141 v 25.78516 c 0,8.23261 -1.9165,24.19141 -22.8066,24.19141 h -58.8008 v -30.65039 c 0,-8.12368 10.9887,-19.32618 20.1933,-19.32618 z"
             transform="matrix(0.26458333,0,0,0.26458333,0,11.249939)"
             id="path896"
             inkscape:connector-curvature="0" />
          <path
             style="fill:#8c0101;stroke-width:1.68500292"
             d="m 907.65481,-70.726816 v -12.46303 l 7.67269,0.0549 c 9.52598,0.21395 16.87292,5.38888 24.077,12.43571 v -12.43571 l 3.83677,3e-4 h 3.83646 v 12.43541 12.43542 h -3.7919 -3.88133 c 0.51317,-1.91519 -14.99055,-16.66875 -24.077,-16.66875 l 2.3e-4,16.66875 h -7.67292 z"
             id="path898"
             inkscape:connector-curvature="0" />
          <path
             style="fill:#8c0101;stroke-width:1.68500292"
             d="m 876.69857,-85.97593 9.39814,-9.59419 9.38727,9.59419 z"
             id="path900"
             inkscape:connector-curvature="0" />
        </g>
        <g
           id="g910"
           style="stroke-width:1.68500292">
          <path
             style="fill:#8c0101;stroke-width:1.68500292"
             d="m 829.0205,-106.62962 -31.43235,-0.3175 v -12.17083 h 79.63958 v 12.17083 l -31.75023,0.3175 v 14.49916 h -16.457 z"
             id="path904"
             inkscape:connector-curvature="0" />
          <path
             style="fill:#8c0101;stroke-width:6.36851454"
             d="m 3323.0059,-1160.8516 -78.1407,113.3106 -79.6425,113.61522 -79.8575,-113.30472 -78.3593,-113.6074 -0.5,164.97071 -1.2598,165.73242 -77.5117,-79.34375 -70.875,-73.9375 c -0.349,-0.36408 156.0663,469.93873 157.0976,471.60743 l 151.3594,0.83203 150.6895,-0.25196 78.7304,-235.9375 c 43.3018,-129.76486 78.5888,-236.07727 78.416,-236.25 l -52.7304,54.9004 -95.5176,97.70117 c -1.1769,-0.97675 -1.4306,-26.54904 -1.6445,-165.59571 z m -229.0332,293.29887 35.75,49.77539 c 19.3065,26.88045 34.7332,49.47354 35.2832,49.5 l 35.2851,-49.45118 35.75,-49.82421 1.4649,73.25 c 0.8096,40.45719 0.4587,73.86486 0.7558,73.57421 l 34.2442,-33.5 36,-32.75 -71.8047,213 h -143.3887 l -71.8066,-213 36,32.75 34.2441,33.5 0.7559,-73.57421 z"
             transform="matrix(0.26458333,0,0,0.26458333,0,11.249939)"
             id="path906"
             inkscape:connector-curvature="0" />
          <path
             style="fill:#8c0101;stroke-width:1.68500292"
             d="m 831.19023,-157.35024 6.21771,-5.95313 6.21771,5.95313 5.94871,5.95312 h -12.16642 -12.16642 z"
             id="path908"
             inkscape:connector-curvature="0" />
        </g>
      </g>
      <g
         transform="matrix(0.16080308,0,0,0.16080308,17.526839,185.1915)"
         id="g936"
         style="stroke-width:4.32561684">
        <path
           inkscape:connector-curvature="0"
           style="fill:#000000;fill-opacity:1;stroke-width:4.32561684"
           d="m 1189.0391,5.1078447 v -9.92217 h 10.9486 10.9486 v 2.39501 2.39499994 h -7.8693 -7.8693 v 1.71072006 1.71072 h 7.185 7.185 v 1.71072 1.71071 h -7.185 -7.185 v 1.71072 1.7107203 h 7.8693 7.8693 v 2.395001 2.39501 h -10.9486 -10.9486 z"
           id="path914" />
        <path
           inkscape:connector-curvature="0"
           style="fill:#000000;fill-opacity:1;stroke-width:4.32561684"
           d="m 1243.7821,5.1078447 v -9.92217 h 4.6851 4.6852 l 5.4081,6.84223 c 2.9744,3.76322 5.639,6.84252 5.9212,6.84287 0.2823,3.6e-4 0.5132,-3.07865 0.5132,-6.84223 v -6.84287 h 2.7372 2.7371 v 9.92217 9.9221613 l -4.6189,-0.0326 -4.6189,-0.0326 -5.4743,-6.9540213 -5.4743,-6.9540101 -0.195,6.9866601 -0.195,6.9866513 h -3.0554 -3.0553 z"
           id="path916" />
        <path
           inkscape:connector-curvature="0"
           style="fill:#000000;fill-opacity:1;stroke-width:4.32561684"
           d="m 1310.8422,7.5028447 v -7.52716006 h -4.1057 -4.1058 v -2.39499994 -2.39501 h 11.6329 11.6329 v 2.39501 2.39499994 h -4.4479 -4.4478 V 7.5028447 15.030006 h -3.0793 -3.0793 z"
           id="path918" />
        <path
           id="path920"
           d="m 1357.3737,5.1078447 v -9.92217 h 10.9486 10.9486 v 2.39501 2.39499999 h -7.8693 -7.8693 v 1.71072001 1.71072 h 7.185 7.185 v 1.71072 1.71071 h -7.185 -7.185 v 1.71072 1.7107203 h 7.8693 7.8693 v 2.395001 2.39501 h -10.9486 -10.9486 z"
           style="fill:#000000;fill-opacity:1;stroke-width:4.32561684"
           inkscape:connector-curvature="0" />
        <path
           inkscape:connector-curvature="0"
           style="fill:#000000;fill-opacity:1;stroke-width:16.34878731"
           d="m 5337.1348,-61.070312 v 37.677734 37.679687 h 11.6367 11.6387 V 3.9414062 -6.4042969 l 40.5996,0.00195 c 9.2311,2.185e-4 7.9531,13.0521618 7.9531,20.6894529 h 20.6914 V -6.4023438 c -0.033,-7.8712542 -6.8093,-9.7589302 -10.5703,-10.0761722 13.1842,-2.968002 17.9004,-44.591796 -10.3555,-44.591796 z m 23.2754,18.255859 h 41.2597 c 6.7858,0 6.7858,18.507812 0,18.507812 h -41.2597 v -9.251953 z"
           transform="matrix(0.26458333,0,0,0.26458333,0,11.249939)"
           id="path922" />
        <path
           id="path924"
           d="m 1469.5966,-4.9128986 v 9.9689004 9.9694162 h 3.0789 3.0794 v -2.7373 -2.7373003 l 12.7841,5.168e-4 c 3.9366,-0.1735716 4.6052,-3.7808624 4.668,-7.0722669 0,-3.0855096 -0.4001,-7.3919662 -4.668,-7.3919662 z m 6.1583,4.83019598 h 10.9166 c 1.7954,0 1.7954,4.89685852 0,4.89685852 h -10.9166 V 2.3662434 Z"
           style="opacity:1;fill:#000000;fill-opacity:1;stroke-width:4.32561684"
           inkscape:connector-curvature="0"
           sodipodi:nodetypes="cccccccccsccssccc" />
        <path
           id="path926"
           d="m 1525.7084,-4.9085153 v 9.9689003 9.969417 h 3.0789 3.0794 v -2.7373 -2.737301 l 10.742,5.167e-4 c 2.4424,5.78e-5 2.1043,3.4533843 2.1043,5.4740843 h 5.4746 V 9.5557177 c -0.01,-2.0826026 -1.8017,-2.5820502 -2.7968,-2.6659872 3.4884,-0.7852838 4.7362,-11.7982458 -2.7399,-11.7982458 z m 6.1583,4.83019592 h 10.9167 c 1.7954,0 1.7954,4.89685858 0,4.89685858 h -10.9167 V 2.3706266 Z"
           style="fill:#000000;fill-opacity:1;stroke-width:4.32561684"
           inkscape:connector-curvature="0" />
        <path
           inkscape:connector-curvature="0"
           style="fill:#000000;fill-opacity:1;stroke-width:4.32561684"
           d="m 1583.8728,5.1078247 v -9.92217 h 2.7371 2.7372 v 9.92217 9.9221613 h -2.7372 -2.7371 z"
           id="path928" />
        <path
           inkscape:connector-curvature="0"
           style="fill:#000000;fill-opacity:1;stroke-width:4.32561684"
           d="m 1680.3573,5.1078247 v -9.92217 h 10.9485 10.9486 v 2.39501 2.39499994 h -7.8693 -7.8693 v 1.71072006 1.71072 h 7.1851 7.185 v 1.71072 1.71071 h -7.185 -7.1851 v 1.71072 1.7107203 h 7.8693 7.8693 v 2.395001 2.39501 h -10.9486 -10.9485 z"
           id="path930" />
        <path
           style="fill:#000000;fill-opacity:1;stroke-width:4.32561684"
           d="m 1627.4534,-4.688061 c -2.5666,0 -4.5744,1.8366635 -4.5744,3.91531734 0,0.93828329 -0.1401,3.30900246 0,4.00088716 0.9992,4.9279672 3.0874,4.0881922 9.782,4.0451998 v 0.00255 c 8.765,4e-7 8.5574,-0.4287227 8.5574,2.2711593 0,1.8170324 -1.1544,1.5453464 -2.4454,1.5453464 -0.8174,0 -5.7079,0.01077 -6.3347,0.01579 -4.3222,0 -3.8118,-0.601663 -3.8118,-2.4234528 h -5.803 c -0.025,3.8004108 -0.1489,6.4711998 5.7393,6.4711998 h 12.7681 c 2.5667,0 4.5744,-1.837173 4.5744,-3.915827 0,-0.938283 0.1403,-3.3084935 0,-4.0003779 0,-4.5112227 -3.0213,-4.0451999 -9.7819,-4.0451999 v -0.00255 c -7.4621,0 -8.5575,0.4282137 -8.5575,-2.27166838 0,-1.81703122 1.1544,-1.54483641 2.4454,-1.54483641 0.8174,0 5.7079,-0.011271 6.3346,-0.016299 4.4588,-0.0355905 3.812,0.60217197 3.812,2.42396169 h 5.8029 c 0.025,-3.8004111 0.1489,-6.471199 -5.7392,-6.471199 z"
           id="path932"
           inkscape:connector-curvature="0"
           sodipodi:nodetypes="sscccsscccssscccsscccss" />
        <path
           sodipodi:nodetypes="sscccsscccssscccsscccss"
           inkscape:connector-curvature="0"
           id="path934"
           d="m 1739.7117,-4.7827357 c -2.5666,0 -4.5744,1.8366635 -4.5744,3.91531736 0,0.93828329 -0.1401,3.30900244 0,4.00088714 0.9992,4.9279672 3.0874,4.0881922 9.782,4.0451998 v 0.00255 c 8.765,4e-7 8.5574,-0.4287227 8.5574,2.2711593 0,1.8170321 -1.1544,1.5453461 -2.4454,1.5453461 -0.8174,0 -5.7079,0.01077 -6.3347,0.01579 -4.3222,0 -3.8118,-0.601663 -3.8118,-2.4234525 h -5.803 c -0.025,3.8004105 -0.1489,6.4711995 5.7393,6.4711995 h 12.7681 c 2.5667,0 4.5744,-1.837173 4.5744,-3.915827 0,-0.938283 0.1403,-3.3084932 0,-4.0003776 0,-4.5112227 -3.0213,-4.0451999 -9.7819,-4.0451999 v -0.00255 c -7.4621,0 -8.5575,0.4282137 -8.5575,-2.27166837 0,-1.81703121 1.1544,-1.5448364 2.4454,-1.5448364 0.8174,0 5.7079,-0.011271 6.3346,-0.016299 4.4588,-0.0355905 3.812,0.60217197 3.812,2.42396167 h 5.8029 c 0.025,-3.8004111 0.1489,-6.471199 -5.7392,-6.471199 z"
           style="fill:#000000;fill-opacity:1;stroke-width:4.32561684" />
      </g>
    </g>
  </g>
</svg>
