<?xml version="1.0" encoding="UTF-8" standalone="no"?>
<!-- Created with Inkscape (http://www.inkscape.org/) -->

<svg
   xmlns:dc="http://purl.org/dc/elements/1.1/"
   xmlns:cc="http://creativecommons.org/ns#"
   xmlns:rdf="http://www.w3.org/1999/02/22-rdf-syntax-ns#"
   xmlns:svg="http://www.w3.org/2000/svg"
   xmlns="http://www.w3.org/2000/svg"
   xmlns:sodipodi="http://sodipodi.sourceforge.net/DTD/sodipodi-0.dtd"
   xmlns:inkscape="http://www.inkscape.org/namespaces/inkscape"
   width="499.99997"
   height="624.80121"
   viewBox="0 0 132.29166 165.31199"
   version="1.1"
   id="svg8"
   inkscape:version="0.92.5 (2060ec1f9f, 2020-04-08)"
   sodipodi:docname="logo-fx300-torch.svg"
   inkscape:export-filename="/home/Aidan/Pictures/wipeout-backgrounds/tigron.png"
   inkscape:export-xdpi="96"
   inkscape:export-ydpi="96">
  <defs
     id="defs2" />
  <sodipodi:namedview
     id="base"
     pagecolor="#ffffff"
     bordercolor="#666666"
     borderopacity="1.0"
     inkscape:pageopacity="0.0"
     inkscape:pageshadow="2"
     inkscape:zoom="0.49497474"
     inkscape:cx="12.957089"
     inkscape:cy="416.44553"
     inkscape:document-units="mm"
     inkscape:current-layer="layer1"
     showgrid="false"
     units="px"
     inkscape:window-width="1920"
     inkscape:window-height="993"
     inkscape:window-x="1920"
     inkscape:window-y="0"
     inkscape:window-maximized="1"
     inkscape:snap-nodes="false"
     inkscape:snap-bbox="true"
     inkscape:bbox-nodes="false"
     inkscape:snap-page="true"
     inkscape:snap-bbox-midpoints="true"
     inkscape:snap-others="false"
     inkscape:snap-bbox-edge-midpoints="false"
     fit-margin-top="0"
     fit-margin-left="0"
     fit-margin-right="0"
     fit-margin-bottom="0" />
  <metadata
     id="metadata5">
    <rdf:RDF>
      <cc:Work
         rdf:about="">
        <dc:format>image/svg+xml</dc:format>
        <dc:type
           rdf:resource="http://purl.org/dc/dcmitype/StillImage" />
        <dc:title></dc:title>
      </cc:Work>
    </rdf:RDF>
  </metadata>
  <g
     inkscape:label="Layer 1"
     inkscape:groupmode="layer"
     id="layer1"
     transform="translate(-171.25172,-58.595511)">
    <g
       id="g3603">
      <path
         inkscape:connector-curvature="0"
         id="path1075"
         d="m 230.59297,212.14431 -25.5011,-0.2576 v -9.8742 h 64.61168 v 9.8742 l -25.759,0.2576 v 11.76319 h -13.35158 z"
         style="fill:#8c0101;stroke-width:0.99999994" />
      <path
         inkscape:connector-curvature="0"
         id="path1073"
         d="m 271.31339,58.595511 -16.77343,24.322883 -17.0958,24.388266 -17.14194,-24.321615 -16.82036,-24.386593 -0.1074,35.412073 -0.27042,35.575575 -16.6384,-17.03166 -15.21379,-15.871188 c -0.0749,-0.07815 33.50066,100.875508 33.72205,101.233708 l 32.49031,0.1786 32.34651,-0.054 16.90002,-50.64556 c 9.29502,-27.85489 16.86961,-50.675573 16.83251,-50.712652 l -11.31893,11.784712 -20.50349,20.97221 c -0.25264,-0.20966 -0.30709,-5.69893 -0.35301,-35.546231 z m -49.16352,62.958569 7.67397,10.68464 c 4.14428,5.77005 7.45573,10.61981 7.57378,10.6255 l 7.57419,-10.61503 7.67398,-10.69511 0.31444,15.72361 c 0.17379,8.68441 0.0985,15.85558 0.16225,15.7932 l 7.35074,-7.191 7.72764,-7.03001 -15.41335,45.72188 h -30.77936 l -15.41376,-45.72188 7.72764,7.03001 7.35072,7.191 0.16225,-15.7932 z"
         style="fill:#8c0101;stroke-width:0.99999994" />
      <path
         inkscape:connector-curvature="0"
         id="path1052"
         d="m 232.35328,170.99461 5.04442,-4.82977 5.04445,4.82977 4.82619,4.82978 h -9.87064 -9.87062 z"
         style="fill:#8c0101;stroke-width:0.99999994" />
    </g>
  </g>
</svg>
